<svg width="179" height="128" viewBox="0 0 179 128" fill="none" xmlns="http://www.w3.org/2000/svg">
<ellipse cx="87.8145" cy="98.642" rx="74.2083" ry="3.38858" fill="url(#paint0_radial)"/>
<path d="M15.2013 84.5876L17.2212 86.4901C17.2212 86.4901 18.0074 85.6917 19.5441 85.5388C21.0795 85.386 42.4056 87.2597 42.4056 87.2597C42.4056 87.2597 45.2408 86.7641 46.3632 86.4901C47.4856 86.2162 119.333 85.5705 119.333 85.5705L120.171 86.7256C120.171 86.7256 121.726 85.6325 123.94 85.3557C126.156 85.079 146.36 83.9116 146.36 83.9116C146.36 83.9116 147.518 84.9276 148.298 84.6192C149.077 84.3108 151.795 81.8534 151.795 81.8534L148.959 67.2604L130.794 64.4643L108.066 63.3589L41.2236 65.6318L16.1344 67.1063L14.198 78.0744L15.2013 84.5876Z" fill="black"/>
<path d="M29.3835 56.1699C29.3835 56.1699 28.9427 54.5042 29.1082 54.3968C29.2736 54.2908 33.2432 52.8094 33.7078 52.5244C34.1737 52.2395 51.2827 35.2978 54.4316 35.6117C57.5792 35.9242 51.5845 46.4601 51.5845 46.4601L33.1333 57.9913L29.3835 56.1699Z" fill="#3C4660"/>
<path d="M164.188 76.008C164.188 76.008 166.713 76.4761 166.747 77.7344C166.781 78.9927 168.269 83.741 160.627 83.3816C152.985 83.021 160.004 75.361 164.188 76.008Z" fill="#2E2E2E"/>
<path d="M14.026 62.0068L12.7104 62.753C12.7104 62.753 11.0691 66.6187 11.1247 68.1854C11.1789 69.7521 11.1101 74.2415 11.3497 74.6724C11.5893 75.1033 14.026 75.0468 14.026 75.0468L16.1332 74.7054C16.1332 74.7054 15.6964 62.8315 14.026 62.0068Z" fill="#EBE4E1"/>
<path d="M161.804 52.9456C162.081 52.0094 159.323 42.4923 159.323 42.4923H161.637C160.826 39.8449 159.824 37.572 158.586 36.121C158.586 36.121 158.205 32.7412 150.254 33.4681L126.462 33L71.6616 33.6236C71.6616 33.6236 55.4632 33.0509 52.362 36.64L33.4634 55.1028C33.4634 55.1028 29.7559 55.6659 29.11 54.3966L13.4132 61.5086C13.4132 61.5086 12.8295 61.6422 12.7117 62.7518C12.7117 62.7518 14.4364 63.0037 14.5555 64.792C14.6733 66.5804 14.9142 74.4165 14.439 74.601C13.9639 74.7855 11.4755 74.6024 11.2968 74.1081C11.2968 74.1081 11.1512 74.495 11.4212 74.7538C11.6925 75.0126 12.6296 75.2797 13.1578 75.3031C13.6859 75.3265 19.4436 75.4931 19.4436 75.4931C19.4436 75.4931 24.0379 69.1686 32.0643 70.4695C40.0894 71.7705 42.6652 76.3205 43.8657 80.5594C45.0662 84.7982 45.0159 86.5659 46.6903 86.7228C48.366 86.8784 120.171 86.7228 120.171 86.7228C120.171 86.7228 121.146 85.2401 120.921 84.3824C120.696 83.5248 120.997 67.8428 135.173 68.8574C149.349 69.8721 148.299 84.6165 148.299 84.6165L162.062 83.4463C162.062 83.4463 162.85 82.5886 162.85 81.2614C162.85 79.9357 162.85 77.0488 162.85 77.0488C162.85 77.0488 164.95 77.5953 164.95 75.6446V65.1913C164.95 65.1913 164.732 59.4587 163.813 52.9428H161.804V52.9456Z" fill="#EBEBEB"/>
<path d="M46.5095 45.8488C46.5095 45.8488 52.3996 39.6399 53.7391 38.9171C55.0786 38.1943 57.1064 36.5974 60.4313 36.6497C63.7562 36.702 66.7754 36.2917 66.7754 36.2917H70.365C70.365 36.2917 71.3419 36.1486 71.5894 37.1301C71.8382 38.1104 71.5894 52.8837 71.5894 52.8837C71.5894 52.8837 71.6397 53.8171 71.093 53.9727C70.5477 54.1269 47.2203 54.4917 47.2203 54.4917L46.5095 45.8488Z" fill="#3C4660"/>
<path d="M12.0284 73.7515C12.0284 73.7515 7.8855 74.572 7.8855 76.0767C7.8855 77.5814 7.8855 83.76 7.8855 83.76C7.8855 83.76 8.42422 86.3647 11.2184 86.49C14.0126 86.6153 17.221 86.49 17.221 86.49C17.221 86.49 15.4924 77.2262 19.4142 75.4957C20.1621 75.1653 12.0284 73.7515 12.0284 73.7515Z" fill="#393B3A"/>
<path d="M161.804 52.9458H163.812C163.315 49.4297 162.617 45.6864 161.637 42.4924H159.323C159.323 42.4911 162.081 52.0097 161.804 52.9458Z" fill="#D83235"/>
<path d="M42.9624 86.4902C42.9624 93.51 37.4918 99.1999 30.7427 99.1999C23.9949 99.1999 18.5244 93.51 18.5244 86.4902C18.5244 79.4705 23.9949 73.782 30.7427 73.782C37.4918 73.7806 42.9624 79.4705 42.9624 86.4902Z" fill="#27262C"/>
<path d="M21.5425 86.4903C21.5425 91.7919 25.6748 96.0913 30.7733 96.0913C35.8705 96.0913 40.0028 91.7933 40.0028 86.4903C40.0028 81.1886 35.8705 76.8906 30.7733 76.8906C25.6748 76.8892 21.5425 81.1873 21.5425 86.4903Z" fill="#616161"/>
<path d="M27.5685 80.0528L29.7049 82.5776C29.7049 82.5776 30.0741 83.1833 30.5784 83.1833C31.0841 83.1833 31.4534 82.7593 31.4534 82.7593L33.6863 80.0528C33.6863 80.0528 33.9973 79.6687 33.6863 79.4071C33.3752 79.1442 32.2859 78.7615 30.773 78.7615C29.2588 78.7601 27.0259 79.1855 27.5685 80.0528Z" fill="#27262C"/>
<path d="M27.5685 92.9264L29.7035 90.4014C29.7035 90.4014 30.0728 89.7957 30.5771 89.7957C31.0827 89.7957 31.452 90.2197 31.452 90.2197L33.685 92.9264C33.685 92.9264 33.996 93.3105 33.685 93.5721C33.3739 93.8351 32.2846 94.2192 30.7717 94.2192C29.2588 94.2192 27.0259 93.7951 27.5685 92.9264Z" fill="#27262C"/>
<path d="M37.0365 83.28L34.609 85.5019C34.609 85.5019 34.0266 85.886 34.0266 86.4105C34.0266 86.9364 34.4343 87.3191 34.4343 87.3191L37.0365 89.6429C37.0365 89.6429 37.4058 89.9664 37.6573 89.6429C37.9101 89.3194 38.2794 88.1864 38.2794 86.6115C38.2794 85.038 37.8717 82.7142 37.0365 83.28Z" fill="#27262C"/>
<path d="M24.6602 83.28L27.0877 85.5019C27.0877 85.5019 27.6701 85.886 27.6701 86.4105C27.6701 86.9364 27.2625 87.3191 27.2625 87.3191L24.6602 89.6429C24.6602 89.6429 24.2909 89.9664 24.0381 89.6429C23.7866 89.3194 23.416 88.1864 23.416 86.6115C23.416 85.038 23.8237 82.7142 24.6602 83.28Z" fill="#27262C"/>
<path d="M147.07 85.7095C147.07 92.7293 141.6 98.4192 134.851 98.4192C128.103 98.4192 122.632 92.7293 122.632 85.7095C122.632 78.6911 128.103 73.0012 134.851 73.0012C141.6 73.0012 147.07 78.6911 147.07 85.7095Z" fill="#27262C"/>
<path d="M125.651 85.7096C125.651 91.0126 129.783 95.3107 134.882 95.3107C139.979 95.3107 144.111 91.0126 144.111 85.7096C144.111 80.4079 139.979 76.1099 134.882 76.1099C129.783 76.1099 125.651 80.4079 125.651 85.7096Z" fill="#616161"/>
<path d="M131.678 79.2735L133.814 81.7984C133.814 81.7984 134.183 82.4041 134.687 82.4041C135.193 82.4041 135.562 81.9801 135.562 81.9801L137.795 79.2735C137.795 79.2735 138.106 78.8894 137.795 78.6278C137.484 78.3649 136.395 77.9822 134.881 77.9822C133.366 77.9808 131.134 78.4048 131.678 79.2735Z" fill="#27262C"/>
<path d="M131.678 92.1456L133.813 89.6207C133.813 89.6207 134.182 89.0149 134.687 89.0149C135.193 89.0149 135.562 89.4389 135.562 89.4389L137.795 92.1456C137.795 92.1456 138.106 92.5297 137.795 92.7913C137.484 93.0542 136.395 93.4384 134.882 93.4384C133.366 93.4384 131.134 93.0143 131.678 92.1456Z" fill="#27262C"/>
<path d="M141.144 82.5005L138.717 84.7225C138.717 84.7225 138.134 85.1066 138.134 85.6311C138.134 86.157 138.542 86.5397 138.542 86.5397L141.144 88.8622C141.144 88.8622 141.513 89.1858 141.765 88.8622C142.018 88.5387 142.387 87.4057 142.387 85.8308C142.388 84.2572 141.979 81.9347 141.144 82.5005Z" fill="#27262C"/>
<path d="M128.768 82.5005L131.196 84.7225C131.196 84.7225 131.778 85.1066 131.778 85.6311C131.778 86.157 131.371 86.5397 131.371 86.5397L128.768 88.8636C128.768 88.8636 128.399 89.1872 128.146 88.8636C127.895 88.5401 127.525 87.4071 127.525 85.8321C127.524 84.2572 127.933 81.9347 128.768 82.5005Z" fill="#27262C"/>
<path d="M75.5063 85.3214H47.9659C46.907 85.3214 46.6621 84.823 46.6383 84.7666L46.6277 84.7294C46.5059 83.9778 45.9897 82.5528 45.3372 80.7508C44.1578 77.4921 42.5417 73.0289 42.0599 69.1893C41.3213 63.3053 42.3908 46.4173 42.4014 46.2466L42.7005 46.2673C42.6899 46.4366 41.6218 63.2956 42.3577 69.1479C42.8355 72.9518 44.4437 77.3957 45.6178 80.6406C46.269 82.4386 46.7839 83.8635 46.9189 84.6509C46.9586 84.7115 47.1902 85.0102 47.9659 85.0102H75.4203C75.5394 84.9235 75.9564 84.5821 75.9564 84.0466C75.9564 83.3334 75.4653 34.122 75.46 33.625L75.7605 33.6223C75.7658 34.1193 76.2568 83.3321 76.2568 84.0466C76.2568 84.8492 75.5712 85.2815 75.5421 85.3007L75.5063 85.3214Z" fill="#B2B2B2"/>
<path d="M49.5135 53.2099C49.5135 54.314 48.6531 55.2075 47.5929 55.2075H47.5346C46.4731 55.2075 45.614 54.3127 45.614 53.2099V47.3755C45.614 46.2714 46.4744 45.3779 47.5346 45.3779H47.5929C48.6544 45.3779 49.5135 46.2728 49.5135 47.3755V53.2099Z" fill="#B2B2B2"/>
<path d="M74.8936 61.8762C74.8936 62.7642 74.2278 63.4126 73.3753 63.4126H73.2893C72.4355 63.4126 71.7168 62.7642 71.7168 61.8762V57.7943C71.7168 56.9063 72.4355 56.1147 73.2893 56.1147H73.3753C74.2291 56.1147 74.8936 56.9063 74.8936 57.7943V61.8762Z" fill="#B2B2B2"/>
<path d="M74.232 61.5101C74.232 61.8006 74.0057 62.036 73.7264 62.036H73.6787C73.3994 62.036 73.1731 61.8006 73.1731 61.5101V57.3304C73.1731 57.0399 73.3994 56.8044 73.6787 56.8044H73.7264C74.0057 56.8044 74.232 57.0399 74.232 57.3304V61.5101Z" fill="#EBEBEB"/>
<path d="M156.672 56.9243H82.6171C81.0724 56.9243 79.6667 55.4622 79.6667 53.8556V41.2698C79.6667 39.7499 80.9904 38.5137 82.6171 38.5137H152.922C154.463 38.5137 155.112 39.5489 155.714 41.3359L159.473 53.9107V53.934C159.473 55.5544 158.19 56.9243 156.672 56.9243ZM82.6171 38.8248C81.1558 38.8248 79.9672 39.922 79.9672 41.2698V53.8556C79.9672 55.2984 81.2299 56.6118 82.6171 56.6118H156.672C158.02 56.6118 159.161 55.3989 159.172 53.9561L155.429 41.4323C154.86 39.7431 154.291 38.8248 152.922 38.8248H82.6171Z" fill="#B2B2B2"/>
<path d="M50.1756 52.5215C50.1756 53.6256 49.3152 54.519 48.255 54.519H48.1967C47.1352 54.519 46.2761 53.6242 46.2761 52.5215V46.687C46.2761 45.5829 47.1365 44.6895 48.1967 44.6895H48.255C49.3165 44.6895 50.1756 45.5843 50.1756 46.687V52.5215Z" fill="#EBEBEB"/>
<defs>
<radialGradient id="paint0_radial" cx="0" cy="0" r="1" gradientUnits="userSpaceOnUse" gradientTransform="translate(87.8145 98.642) rotate(90) scale(3.38858 74.2083)">
<stop offset="0.090216" stop-color="#A3A3A3"/>
<stop offset="0.298553" stop-color="#AFAFAF"/>
<stop offset="0.803771" stop-color="#B9B9B9" stop-opacity="0.62173"/>
<stop offset="1" stop-color="#C9C9C9" stop-opacity="0"/>
</radialGradient>
</defs>
</svg>