<svg width="179" height="128" viewBox="0 0 179 128" fill="none" xmlns="http://www.w3.org/2000/svg">
<ellipse cx="87.5" cy="98" rx="71.5" ry="4" fill="url(#paint0_radial)"/>
<path d="M80.8458 48.9243C80.8458 48.9243 73.2244 51.0563 57.167 62.1984L56.3523 66.589L71.7513 65.0625C71.7513 65.0625 83.1667 52.7492 83.1667 52.5585C83.1667 52.3664 80.8458 48.9243 80.8458 48.9243Z" fill="#EBE4E1"/>
<path d="M53.2454 62.6757L55.5347 62.1984C55.5347 62.1984 56.82 60.7343 57.4168 60.8624C58.012 60.989 58.7336 61.0851 58.3893 61.4664C58.0436 61.8476 57.6994 63.6624 56.5073 64.2023C55.3153 64.7437 52.4622 64.2984 53.2454 62.6757Z" fill="#000308"/>
<path d="M28.6345 88.2386L31.4696 91.6486C31.4696 91.6486 32.4196 91.8957 33.4914 90.8098C34.5632 89.7225 51.7766 92.0451 51.7766 92.0451C51.7766 92.0451 55.3497 92.0527 57.4918 92.039C59.6339 92.0253 113.133 89.6355 113.133 89.6355L121.427 91.6501C121.427 91.6501 124.399 91.0005 125.837 91.246C127.276 91.4915 143.419 90.7381 143.419 90.7381C143.419 90.7381 148.062 91.5784 148.776 90.1434C149.49 88.7083 154.845 70.0844 140.525 69.7946C126.205 69.5048 61.077 80.6652 61.077 80.6652L43.9899 70.4473L29.1321 75.1277L28.6345 88.2386Z" fill="#000308"/>
<path d="M161.979 74.0983C162.23 72.7303 160.285 72.0624 160.285 72.0624C160.285 72.0624 160.504 71.2038 160.285 69.8983C160.065 68.5944 159.531 64.4889 158.936 63.3436C158.341 62.1983 157.893 62.0687 157.893 62.0687L157.776 62.7717C156.603 62.1678 151.862 61.4983 150.951 61.3397C150.042 61.1811 148.805 60.2264 145.983 57.2038C143.16 54.1811 141.968 50.8397 141.968 50.8397L143.85 49.3756C144.257 48.485 139.303 48.1663 139.303 48.1663C137.578 47.9756 115.75 46.0983 102.985 46.0022C90.221 45.9061 80.3102 48.9608 79.7766 49.3116C79.2429 49.6608 79.5571 50.7116 79.5571 50.7116C76.8603 51.1889 59.7357 63.153 58.6699 63.4382C57.6041 63.7249 54.8757 63.8515 53.7769 63.3741C52.6795 62.8968 55.0937 62.2929 55.0937 62.2929C55.0937 62.2929 49.0403 62.2288 33.7991 65.9515C18.5564 69.6741 16.9255 73.6835 16.706 74.5421C16.4865 75.4007 16.1723 76.7382 16.1723 76.7382C15.9529 77.8835 16.0791 81.6062 16.0205 82.0194C15.9619 82.4327 16.0476 82.7515 16.0476 82.7515C16.0295 82.904 16.022 83.0504 16.022 83.1937C16.494 83.2395 17.1449 83.2929 17.6274 83.2929C18.4753 83.2929 20.5933 83.6619 20.4911 84.8682C20.3904 86.0761 20.8744 87.2824 19.1592 87.6317C17.665 87.9351 16.9059 88.0053 16.4023 87.4349C16.3527 87.5005 16.3076 87.5706 16.27 87.65C16.019 88.1913 16.7451 88.4613 16.7451 88.4613C19.1908 90.1663 31.4631 91.6487 31.4631 91.6487C29.9764 87.5951 29.9388 73.9717 43.1416 73.8757C56.3444 73.7796 56.5654 92.0436 56.5654 92.0436L121.422 91.6487C120.637 89.2177 119.038 74.5131 133.81 74.5436C148.582 74.5757 147.465 90.8815 147.465 90.8815H147.641C149.335 90.8815 152.69 89.8552 153.819 89.6646C154.948 89.4739 158.649 87.3983 159.966 86.6343C161.283 85.8702 160.938 81.4796 160.938 80.9077C160.938 80.3343 160.28 78.3303 160.405 77.5358C160.536 76.7397 161.728 75.4663 161.979 74.0983Z" fill="#EBEBEB"/>
<path d="M19.1654 87.6317C20.8807 87.284 20.3966 86.0762 20.4973 84.8683C20.5981 83.6605 18.4799 83.293 17.6336 83.293C17.151 83.293 16.5001 83.2396 16.0281 83.1938C16.0236 84.7921 17.0323 85.852 17.0909 86.3782C17.145 86.8677 16.6971 87.0537 16.4099 87.435C16.912 88.0039 17.6697 87.9352 19.1654 87.6317Z" fill="#FFDA7F"/>
<path d="M143.361 49.0645C143.361 49.0645 143.89 49.3481 144.698 49.8544C145.507 50.3592 156.523 59.2945 158.235 62.6405C159.947 65.9865 154.626 63.9658 154.626 63.9658L139.565 54.7788C139.565 54.7773 140.031 50.1061 143.361 49.0645Z" fill="#3E4862"/>
<path d="M61.0786 65.4711C61.0786 65.4711 71.8702 55.2868 80.1094 52.0613C88.3485 48.8359 94.7492 48.543 109.388 48.9228C124.027 49.3025 130.3 50.7879 132.935 52.9947C135.571 55.2014 136.826 56.5755 136.657 57.7559C136.491 58.9363 135.444 61.779 134.315 61.9483C133.186 62.1176 104.284 63.603 103.698 63.6457C103.115 63.6899 61.0786 65.4711 61.0786 65.4711Z" fill="#B2B2B2"/>
<path d="M70.5716 59.0217L69.9854 64.1138L102.318 62.9258L106.333 49.8561C106.333 49.8561 89.2267 49.0493 83.4122 51.6801C77.5992 54.3108 75.5082 55.0748 70.5716 59.0217Z" fill="#3C4660"/>
<path d="M112.368 50.5165L109.91 59.862C109.91 59.862 109.474 61.1568 109.91 61.4084C110.346 61.6616 123.758 61.0927 123.758 61.0927C123.758 61.0927 133.342 60.9036 133.685 60.5879C134.028 60.2722 135.677 58.3186 134.836 56.9278C133.996 55.5369 131.725 53.0435 127.026 52.0324C122.327 51.0213 113.426 50.3274 112.368 50.5165Z" fill="#3C4660"/>
<path d="M95.7725 88.3927C95.2193 88.3927 94.8465 88.3744 94.7848 88.3714L60.3069 88.0374L60.2768 87.926C58.1648 80.104 58.6714 71.6781 59.2336 68.3153C59.7417 65.282 61.3231 65.2271 61.3908 65.2271C61.4734 65.2225 61.5411 65.2942 61.5426 65.3781C61.5441 65.462 61.4779 65.5306 61.3953 65.5321C61.3366 65.5336 59.9927 65.6068 59.5297 68.3672C58.9735 71.6903 58.473 79.9957 60.5369 87.7354L94.7939 88.0679C94.863 88.0709 101.113 88.3729 102.045 86.3781C103.022 84.2857 106.63 69.0367 105.7 63.092L105.695 63.0631L105.701 63.0341L108.876 48.8816C108.894 48.7992 108.975 48.7489 109.056 48.7672C109.138 48.7855 109.189 48.8678 109.169 48.9502L106.002 63.0737C106.923 69.0885 103.301 84.4047 102.317 86.5093C101.533 88.1868 97.6365 88.3927 95.7725 88.3927Z" fill="#B2B2B2"/>
<path d="M17.2485 76.2319C17.2485 76.2319 17.3583 74.6473 19.1847 73.6118C21.1012 72.5275 22.1294 72.4253 22.7953 72.834C23.4613 73.2427 24.3887 74.4918 24.4489 75.2086C24.509 75.9253 24.7315 77.4184 23.1381 77.4595C21.5447 77.5007 17.5101 78.2785 17.2485 76.2319Z" fill="#EBE4E1"/>
<path d="M146.684 66.7032C146.684 66.7032 148.416 64.6322 151.765 64.6612C155.114 64.6902 158.63 65.561 158.575 67.8455C158.52 70.1301 153.679 69.4163 153.679 69.4163C153.679 69.4163 145.432 68.7163 146.684 66.7032Z" fill="#D83235"/>
<path d="M138.81 75.9208C138.741 75.9208 138.678 75.872 138.663 75.8003C138.646 75.7179 138.697 75.6371 138.779 75.6188L148.491 73.5371C151.467 73.2062 159.353 72.1112 160.268 71.0116C160.323 70.9476 160.417 70.9384 160.48 70.9933C160.544 71.0482 160.551 71.1443 160.498 71.2084C159.318 72.6266 148.978 73.7903 148.539 73.8391L138.842 75.9177C138.83 75.9208 138.821 75.9208 138.81 75.9208Z" fill="#B2B2B2"/>
<path d="M67.6616 63.51C67.6616 63.51 66.5448 61.6921 69.3136 60.1823C72.0825 58.6725 72.0825 60.9845 72.1051 61.4802C72.1276 61.9758 72.2448 63.7693 71.361 63.934C70.4771 64.0987 67.8811 64.2893 67.6616 63.51Z" fill="#EBEBEB"/>
<path d="M52.5081 71.3837C52.5081 71.3837 52.7606 72.0257 53.183 72.2392C53.6038 72.4527 54.2787 72.41 55.122 72.3673C55.9652 72.3246 57.4398 72.2179 57.2083 71.5545C56.9754 70.8926 53.0762 70.978 52.5081 71.3837Z" fill="#EBE4E1"/>
<path d="M144.635 86.8128C144.635 92.82 139.835 97.691 133.912 97.691C127.991 97.691 123.19 92.8215 123.19 86.8128C123.19 80.8056 127.99 75.9346 133.912 75.9346C139.835 75.9346 144.635 80.8056 144.635 86.8128Z" fill="#27262C"/>
<path d="M125.839 86.8127C125.839 91.3513 129.465 95.0297 133.94 95.0297C138.412 95.0297 142.039 91.3513 142.039 86.8127C142.039 82.2741 138.414 78.5957 133.94 78.5957C129.466 78.5957 125.839 82.2741 125.839 86.8127Z" fill="#616161"/>
<path d="M131.13 81.3042L133.004 83.4652C133.004 83.4652 133.328 83.9837 133.771 83.9837C134.215 83.9837 134.538 83.6208 134.538 83.6208L136.498 81.3042C136.498 81.3042 136.77 80.9763 136.498 80.7506C136.226 80.5264 135.268 80.197 133.941 80.197C132.612 80.197 130.652 80.56 131.13 81.3042Z" fill="#27262C"/>
<path d="M131.13 92.3228L133.004 90.1618C133.004 90.1618 133.329 89.6433 133.771 89.6433C134.215 89.6433 134.538 90.0063 134.538 90.0063L136.497 92.3228C136.497 92.3228 136.77 92.6507 136.497 92.8764C136.224 93.1006 135.267 93.43 133.939 93.43C132.612 93.4285 130.652 93.0655 131.13 92.3228Z" fill="#27262C"/>
<path d="M139.437 84.066L137.307 85.9677C137.307 85.9677 136.796 86.2956 136.796 86.7455C136.796 87.1954 137.153 87.5233 137.153 87.5233L139.437 89.512C139.437 89.512 139.761 89.788 139.981 89.512C140.203 89.2359 140.527 88.2645 140.527 86.9179C140.528 85.5697 140.17 83.581 139.437 84.066Z" fill="#27262C"/>
<path d="M128.577 84.066L130.707 85.9677C130.707 85.9677 131.218 86.2956 131.218 86.7455C131.218 87.1954 130.86 87.5233 130.86 87.5233L128.577 89.512C128.577 89.512 128.252 89.788 128.031 89.512C127.81 89.2359 127.485 88.2645 127.485 86.9179C127.485 85.5697 127.843 83.581 128.577 84.066Z" fill="#27262C"/>
<path d="M53.6886 86.8128C53.6886 92.82 48.8888 97.691 42.9661 97.691C37.045 97.691 32.2437 92.8215 32.2437 86.8128C32.2437 80.8056 37.0434 75.9346 42.9661 75.9346C48.8888 75.9346 53.6886 80.8056 53.6886 86.8128Z" fill="#27262C"/>
<path d="M34.8928 86.8127C34.8928 91.3513 38.5186 95.0297 42.9937 95.0297C47.4673 95.0297 51.093 91.3513 51.093 86.8127C51.093 82.2741 47.4673 78.5957 42.9937 78.5957C38.5201 78.5957 34.8928 82.2741 34.8928 86.8127Z" fill="#616161"/>
<path d="M40.1819 81.3042L42.0564 83.4652C42.0564 83.4652 42.3796 83.9837 42.8231 83.9837C43.2665 83.9837 43.5897 83.6208 43.5897 83.6208L45.55 81.3042C45.55 81.3042 45.822 80.9763 45.55 80.7506C45.2779 80.5264 44.3203 80.197 42.9929 80.197C41.6641 80.197 39.7039 80.56 40.1819 81.3042Z" fill="#27262C"/>
<path d="M40.1819 92.3228L42.0564 90.1618C42.0564 90.1618 42.3812 89.6433 42.8231 89.6433C43.2666 89.6433 43.5898 90.0063 43.5898 90.0063L45.5485 92.3228C45.5485 92.3228 45.8221 92.6507 45.5485 92.8764C45.2764 93.1006 44.3188 93.43 42.9915 93.43C41.6641 93.4285 39.7039 93.0655 40.1819 92.3228Z" fill="#27262C"/>
<path d="M48.4888 84.066L46.3588 85.9677C46.3588 85.9677 45.8477 86.2956 45.8477 86.7455C45.8477 87.1954 46.2054 87.5233 46.2054 87.5233L48.4888 89.512C48.4888 89.512 48.8135 89.788 49.0345 89.512C49.2569 89.2359 49.5802 88.2645 49.5802 86.9179C49.5802 85.5697 49.2224 83.581 48.4888 84.066Z" fill="#27262C"/>
<path d="M37.6296 84.066L39.7596 85.9677C39.7596 85.9677 40.2707 86.2956 40.2707 86.7455C40.2707 87.1954 39.9129 87.5233 39.9129 87.5233L37.6296 89.512C37.6296 89.512 37.3049 89.788 37.084 89.512C36.863 89.2359 36.5383 88.2645 36.5383 86.9179C36.5383 85.5697 36.8961 83.581 37.6296 84.066Z" fill="#27262C"/>
<defs>
<radialGradient id="paint0_radial" cx="0" cy="0" r="1" gradientUnits="userSpaceOnUse" gradientTransform="translate(87.5 98) rotate(90) scale(4 71.5)">
<stop offset="0.090216" stop-color="#A3A3A3"/>
<stop offset="0.298553" stop-color="#AFAFAF"/>
<stop offset="0.803771" stop-color="#B9B9B9" stop-opacity="0.62173"/>
<stop offset="1" stop-color="#C9C9C9" stop-opacity="0"/>
</radialGradient>
</defs>
</svg>