<svg width="179" height="128" viewBox="0 0 179 128" fill="none" xmlns="http://www.w3.org/2000/svg">
<ellipse cx="93.6625" cy="99.4532" rx="72.2347" ry="3.45317" fill="url(#paint0_radial)"/>
<path d="M92.9177 40.0252C92.9177 40.0252 164.38 37.9081 167.243 39.7586C170.107 41.6091 163.9 41.8896 166.277 48.3081L92.9177 40.0252Z" fill="#EBEBEB"/>
<path d="M128.641 88.2162L130.842 89.4438C130.842 89.4438 132.779 88.3691 133.919 88.8293C135.058 89.2894 155.331 88.7255 155.331 88.7255C155.331 88.7255 159.529 89.253 160.25 86.8399C160.969 84.4268 162.822 67.6238 143.216 70.9726C123.608 74.3229 128.22 84.7678 128.641 88.2162Z" fill="black"/>
<path d="M21.5811 87.4809L25.5305 90.319C25.5305 90.319 28.4193 89.2907 29.1384 89.5165C29.8575 89.7424 50.31 91.1496 50.31 91.1496C50.31 91.1496 55.7681 91.6294 57.328 90.319C58.8878 89.0073 50.61 67.1831 38.7949 69.3324C26.9797 71.4817 21.5811 87.4809 21.5811 87.4809Z" fill="black"/>
<path d="M12.4283 74.2147L11.5806 71.8606C11.5806 71.8606 16.3141 63.5945 25.0109 64.5232C33.7076 65.4534 12.4283 74.2147 12.4283 74.2147Z" fill="#EBE4E1"/>
<path d="M155.796 42.4285L165.621 62.8497H170.157C169.057 57.7892 165.739 49.5161 155.796 42.4285Z" fill="#D83235"/>
<path d="M165.621 62.851L167.781 67.339L169.567 67.6126C169.567 67.6126 170.326 67.6266 170.447 67.5186C170.629 67.3545 170.783 65.7214 170.158 62.8496H165.621V62.851Z" fill="#D83235"/>
<path d="M37.9446 60.7719L38.8186 59.2876C38.8186 59.2876 67.7894 41.2654 79.5644 41.595C91.3408 41.9261 41.0933 66.4314 37.9446 60.7719Z" fill="#3C4660"/>
<path d="M170.778 79.8744C170.778 79.8744 170.506 78.7254 170.676 75.963C166.598 75.963 160.028 75.963 158.736 75.963C156.838 75.963 154.532 74.5559 154.532 73.2974C154.532 72.039 155.25 72.2312 155.25 72.2312H169.906V67.5159L169.177 67.4331C169.177 67.4331 169.288 64.6034 168.184 59.7352C167.08 54.867 165.969 48.7347 163.232 44.9482C160.495 41.1616 154.986 41.5109 147.791 40.5121C140.596 39.5132 109.577 39.7573 109.577 39.7573C109.577 39.7573 90.7151 39.638 81.9312 40.8445C73.1473 42.0511 64.098 46.6275 60.9202 48.2507C57.7424 49.8739 45.1791 58.8415 45.1791 58.8415C44.5347 59.2217 39.7639 58.8415 39.7639 58.8415C33.7042 59.2399 20.7801 64.818 20.7801 64.818C21.1631 64.7801 23.0728 65.1786 23.0728 65.1786C24.6023 66.0708 22.1435 67.5888 21.2779 68.2145C20.4122 68.8403 15.9788 71.2505 14.4687 71.7247C12.9586 72.1989 11.5785 71.858 11.5785 71.858C11.0351 72.4655 10.1874 75.3106 10.1874 75.3106C10.1874 75.3106 8.97326 75.8662 8.30811 76.9549L24.3782 76.7599C24.3782 76.7599 25.8786 76.6729 25.7251 77.3365C25.5716 78.0001 24.5013 79.9908 22.481 80.1353C20.7676 80.2574 11.1914 80.2967 8.3247 80.3065C8.71743 81.1216 9.22907 81.6183 9.22907 81.6183V86.5342C8.52244 87.2735 8.66488 88.25 8.66488 88.25C9.49735 92.9554 25.5288 90.3165 25.5288 90.3165C24.1279 81.2886 26.9739 72.9649 39.3338 72.9649C50.5017 72.9649 52.8401 82.9847 53.1872 86.1764L131.076 85.8481C131.815 81.13 134.69 73.4265 145.583 73.3395C161.297 73.2146 158.55 88.4015 158.55 88.4015C158.55 88.4015 166.66 87.1529 169.398 85.7808C172.135 84.4101 170.778 79.8744 170.778 79.8744Z" fill="white"/>
<path d="M25.7268 77.3406C25.8803 76.677 24.3799 76.764 24.3799 76.764L8.30966 76.959C8.08011 77.335 7.91556 77.7727 7.89067 78.2735C7.85056 79.062 8.06076 79.7592 8.32489 80.3106C11.1916 80.3007 20.7679 80.2614 22.4812 80.1394C24.5016 79.9949 25.5733 78.0042 25.7268 77.3406Z" fill="#EBEBEB"/>
<path d="M53.2397 86.9483C53.2397 88.6543 54.2104 91.1501 54.2104 91.1501L130.84 89.4442C130.84 89.4442 130.762 88.1535 131.01 86.303L53.2258 86.6313C53.2355 86.7561 53.2397 86.867 53.2397 86.9483Z" fill="#EBEBEB"/>
<path d="M53.2265 86.6309L131.011 86.3026C131.031 86.1552 131.054 86.0037 131.077 85.8494L53.1877 86.1777C53.2057 86.3517 53.2182 86.5004 53.2265 86.6309Z" fill="#808080"/>
<path d="M88.564 66.2364C88.564 66.959 86.7359 67.0361 84.4818 67.0361C82.2278 67.0361 80.3997 67.0782 80.3997 66.2364C80.3997 65.4368 82.2278 65.4368 84.4818 65.4368C86.7359 65.4368 88.564 65.5153 88.564 66.2364Z" fill="#B2B2B2"/>
<path d="M131.294 66.2364C131.294 66.959 129.466 67.0361 127.212 67.0361C124.958 67.0361 123.129 67.0782 123.129 66.2364C123.129 65.4368 124.958 65.4368 127.212 65.4368C129.466 65.4368 131.294 65.5153 131.294 66.2364Z" fill="#B2B2B2"/>
<path d="M154.223 73.2285C154.223 74.4856 156.84 76.1284 158.738 76.1284C160.028 76.1284 166.6 76.1284 170.678 76.1284C170.685 75.7959 170.693 75.8829 170.701 75.7538C170.923 72.7165 169.906 72.1343 169.906 72.1343H155.251C155.251 72.1357 154.223 71.9715 154.223 73.2285Z" fill="#EBEBEB"/>
<path d="M45.0068 62.8509L92.1331 60.3018L153.696 57.942C153.696 57.942 159.825 58.0234 160.258 56.2333C160.69 54.4431 157.639 47.0384 155.797 45.2482C153.956 43.4581 154.301 43.2953 153.179 42.9698C152.058 42.6444 130.474 41.2611 121.497 41.1797C112.518 41.0983 84.8068 40.6101 76.3465 43.3767C67.8834 46.1419 52.9486 53.844 45.0068 62.8509Z" fill="#252428"/>
<path d="M47.5049 61.6205C47.5049 61.6205 59.4016 51.6807 63.1312 50.4209L61.935 60.7717L47.5049 61.6205Z" fill="#3C4660"/>
<path d="M64.505 49.3251L63.6255 60.5711L88.7547 59.2439L91.36 42.1589C91.36 42.1603 74.6413 42.0944 64.505 49.3251Z" fill="#3C4660"/>
<path d="M97.8707 42.1603L96.9912 58.9142L127.189 57.9518L124.549 41.8615C124.549 41.8615 104.065 41.2975 97.8707 42.1603Z" fill="#3C4660"/>
<path d="M130.868 42.0496L133.382 56.9782H154.998C154.998 56.9782 157.632 56.779 158.372 55.9176C159.111 55.0548 158.864 52.9532 158.09 51.5278C157.316 50.101 154.781 43.9702 152.74 43.6377C150.699 43.3052 130.868 42.0496 130.868 42.0496Z" fill="#3C4660"/>
<path d="M92.2565 60.3118C92.2343 60.7467 91.0797 83.2962 91.4835 86.0011L91.2387 86.0333C90.8308 83.2934 91.9619 61.2335 92.0103 60.295L92.0117 60.2852" fill="#B2B2B2"/>
<path d="M131.196 58.7642C131.421 59.0672 133.642 62.141 133.523 65.4001C133.404 68.6801 131.95 81.6278 128.668 85.9194L128.468 85.7833C131.716 81.5352 133.158 68.6577 133.276 65.393C133.398 62.0583 131.001 58.9101 130.978 58.8792L130.96 58.8554L130.955 58.8273" fill="#B2B2B2"/>
<path d="M23.5393 66.2209L23.4937 65.9908C23.6458 65.9641 38.7894 63.2621 44.9957 62.7332L45.0178 62.966C38.824 63.4936 23.6914 66.1928 23.5393 66.2209Z" fill="#B2B2B2"/>
<path d="M54.2957 63.9775L58.2161 59.0883C58.2161 59.0883 59.3888 55.7703 62.3218 55.4799C65.2549 55.1881 68.9596 55.2175 69.1753 57.8074C69.391 60.3972 68.1257 60.776 66.9212 60.7465C65.7167 60.7171 60.9002 61.2418 60.9002 61.2418L61.3013 63.2788C61.304 63.2788 54.6358 65.083 54.2957 63.9775Z" fill="#EBEBEB"/>
<path d="M156.177 87.3366C156.177 93.7579 151.046 98.9642 144.716 98.9642C138.387 98.9642 133.255 93.7593 133.255 87.3366C133.255 80.9139 138.386 75.709 144.716 75.709C151.046 75.709 156.177 80.9139 156.177 87.3366Z" fill="#27262C"/>
<path d="M136.085 87.3366C136.085 92.1879 139.962 96.1204 144.744 96.1204C149.525 96.1204 153.4 92.1879 153.4 87.3366C153.4 82.4852 149.524 78.5527 144.744 78.5527C139.962 78.5527 136.085 82.4852 136.085 87.3366Z" fill="#616161"/>
<path d="M141.738 81.4471L143.742 83.7577C143.742 83.7577 144.088 84.3119 144.562 84.3119C145.036 84.3119 145.382 83.9233 145.382 83.9233L147.477 81.4471C147.477 81.4471 147.769 81.0963 147.477 80.8564C147.187 80.6165 146.163 80.2644 144.745 80.2644C143.323 80.2644 141.228 80.653 141.738 81.4471Z" fill="#27262C"/>
<path d="M141.738 93.2249L143.742 90.9143C143.742 90.9143 144.089 90.3601 144.562 90.3601C145.035 90.3601 145.382 90.7487 145.382 90.7487L147.477 93.2249C147.477 93.2249 147.769 93.5756 147.477 93.8155C147.185 94.0569 146.163 94.4076 144.745 94.4076C143.323 94.4076 141.228 94.0204 141.738 93.2249Z" fill="#27262C"/>
<path d="M150.618 84.4004L148.34 86.4333C148.34 86.4333 147.794 86.784 147.794 87.2638C147.794 87.745 148.177 88.0958 148.177 88.0958L150.618 90.2212C150.618 90.2212 150.964 90.5172 151.2 90.2212C151.438 89.9252 151.784 88.8884 151.784 87.4476C151.784 86.0082 151.402 83.8813 150.618 84.4004Z" fill="#27262C"/>
<path d="M139.01 84.4004L141.288 86.4333C141.288 86.4333 141.834 86.784 141.834 87.2638C141.834 87.745 141.451 88.0958 141.451 88.0958L139.01 90.2212C139.01 90.2212 138.664 90.5172 138.426 90.2212C138.19 89.9252 137.844 88.8884 137.844 87.4476C137.843 86.0082 138.226 83.8813 139.01 84.4004Z" fill="#27262C"/>
<path d="M50.5269 87.3366C50.5269 93.7579 45.3951 98.9642 39.0658 98.9642C32.7365 98.9642 27.6047 93.7593 27.6047 87.3366C27.6047 80.9139 32.7351 75.709 39.0658 75.709C45.3951 75.709 50.5269 80.9139 50.5269 87.3366Z" fill="#27262C"/>
<path d="M30.4355 87.3366C30.4355 92.1879 34.3117 96.1204 39.0936 96.1204C43.8755 96.1204 47.7502 92.1879 47.7502 87.3366C47.7502 82.4852 43.8741 78.5527 39.0936 78.5527C34.3117 78.5527 30.4355 82.4852 30.4355 87.3366Z" fill="#616161"/>
<path d="M36.0886 81.4471L38.0924 83.7577C38.0924 83.7577 38.4381 84.3119 38.9124 84.3119C39.3867 84.3119 39.7324 83.9233 39.7324 83.9233L41.8274 81.4471C41.8274 81.4471 42.1192 81.0963 41.8274 80.8564C41.537 80.6165 40.5137 80.2644 39.0949 80.2644C37.6734 80.2644 35.5783 80.653 36.0886 81.4471Z" fill="#27262C"/>
<path d="M36.0886 93.2249L38.0924 90.9143C38.0924 90.9143 38.4395 90.3601 38.9124 90.3601C39.3853 90.3601 39.7324 90.7487 39.7324 90.7487L41.8274 93.2249C41.8274 93.2249 42.1192 93.5756 41.8274 93.8155C41.5356 94.0569 40.5137 94.4076 39.0949 94.4076C37.6734 94.4076 35.5783 94.0204 36.0886 93.2249Z" fill="#27262C"/>
<path d="M44.9671 84.4004L42.6895 86.4333C42.6895 86.4333 42.1433 86.784 42.1433 87.2638C42.1433 87.745 42.5264 88.0958 42.5264 88.0958L44.9671 90.2212C44.9671 90.2212 45.3128 90.5172 45.5493 90.2212C45.7871 89.9252 46.1329 88.8884 46.1329 87.4476C46.1329 86.0082 45.7512 83.8813 44.9671 84.4004Z" fill="#27262C"/>
<path d="M33.3598 84.4004L35.6374 86.4333C35.6374 86.4333 36.1836 86.784 36.1836 87.2638C36.1836 87.745 35.8006 88.0958 35.8006 88.0958L33.3598 90.2212C33.3598 90.2212 33.0141 90.5172 32.7763 90.2212C32.5398 89.9252 32.1941 88.8884 32.1941 87.4476C32.1927 86.0082 32.5758 83.8813 33.3598 84.4004Z" fill="#27262C"/>
<path d="M11.2408 82.2929C11.2408 82.2929 11.31 85.7329 11.6018 86.2394C11.8949 86.7458 12.6168 87.2523 13.7189 87.3926C14.821 87.5329 16.9036 87.7068 17.0751 86.2576C17.2479 84.8083 17.5397 82.0838 17.5397 82.0838C17.5397 82.0838 11.1551 81.9786 11.2408 82.2929Z" fill="#27262C"/>
<path d="M124.053 79.0832C124.064 79.6584 110.424 79.9039 93.5971 80.2265C76.7705 80.5492 63.13 80.8298 63.1204 80.2546C63.1093 79.6794 76.7968 79.1547 93.6234 78.8321C110.449 78.508 124.042 78.508 124.053 79.0832Z" fill="#B2B2B2"/>
<defs>
<radialGradient id="paint0_radial" cx="0" cy="0" r="1" gradientUnits="userSpaceOnUse" gradientTransform="translate(93.6625 99.4532) rotate(90) scale(3.45317 72.2347)">
<stop offset="0.090216" stop-color="#A3A3A3"/>
<stop offset="0.298553" stop-color="#AFAFAF"/>
<stop offset="0.803771" stop-color="#B9B9B9" stop-opacity="0.62173"/>
<stop offset="1" stop-color="#C9C9C9" stop-opacity="0"/>
</radialGradient>
</defs>
</svg>