<svg width="179" height="128" viewBox="0 0 179 128" fill="none" xmlns="http://www.w3.org/2000/svg">
<ellipse cx="89.6365" cy="98.4403" rx="68.9227" ry="3.5597" fill="url(#paint0_radial)"/>
<path d="M16.0977 88.3251L21.109 91.5241C21.109 91.5241 22.133 88.9166 25.9798 89.6918C29.8267 90.4669 45.5269 91.6832 45.5269 91.6832C45.5269 91.6832 51.1828 93.2683 53.7985 91.433C56.4128 89.5977 114.381 89.6831 114.381 89.6831L122.719 91.7787C122.719 91.7787 125.448 90.8299 127.378 90.7576C129.309 90.6853 145.871 90.3223 145.871 90.3223L148.786 89.8161L155.676 83.7391L141.839 64.918L40.2737 68.5986L19.6215 74.4283L16.0977 88.3251Z" fill="#050505"/>
<path d="M160.259 85.567H166.188C166.188 85.567 166.973 85.5251 166.842 87.019C166.71 88.513 165.477 88.3148 165.477 88.3148H159.743L160.259 85.567Z" fill="#DFE4E8"/>
<path d="M27.798 67.5992L25.0345 67.2434C25.0345 67.2434 20.4128 67.968 17.813 70.198C15.2132 72.4281 14.1211 76.7899 14.2761 77.4133C14.4325 78.0366 22.8576 74.7132 23.0647 74.4282C23.2733 74.1419 27.798 67.5992 27.798 67.5992Z" fill="#EBE4E1"/>
<path d="M52.5078 63.3588C52.5078 63.3588 53.6288 62.7311 54.437 62.4621C55.2452 62.1931 58.0709 61.7896 57.8913 62.0138C57.7117 62.238 56.5907 62.7311 56.8138 63.3573C57.0397 63.9864 52.5078 63.3588 52.5078 63.3588Z" fill="#5C5F66"/>
<path d="M55.6055 63.4037C55.6055 63.4037 74.1459 53.0213 80.4275 50.8259L82.8405 50.9489L68.887 58.6095L60.1374 64.3886L55.6055 63.4037Z" fill="#EBE4E1"/>
<path d="M159.161 62.7183C159.161 62.7183 161.397 62.0429 161.761 63.5499C162.124 65.0554 162.124 66.5103 162.748 68.0678C163.373 69.6254 163.788 70.5597 163.268 71.6501C162.748 72.7406 154.116 70.6118 154.116 70.6118C154.116 70.6118 154.064 62.8224 159.161 62.7183Z" fill="#D83235"/>
<path d="M51.0365 92.3585C55.916 91.9231 111.921 91.7988 121.369 91.7814L121.315 89.158L51.0234 90.3742C51.0263 91.1407 51.0307 91.8002 51.0365 92.3585Z" fill="#B2B2B2"/>
<path d="M164.223 74.1839C164.223 73.6748 163.494 70.6941 163.494 70.6941C163.494 70.6941 162.547 70.6594 159.817 70.5856C157.087 70.5133 156.541 68.007 155.921 66.8067C155.302 65.6063 160.291 63.7566 160.873 62.8845C161.455 62.0124 152.39 61.1838 150.461 60.9654C148.531 60.747 142.999 57.4554 135.716 53.8934C128.435 50.3299 119.224 48 101.677 48C84.13 48 79.3026 51.1426 79.3026 51.1426H81.3984C67.5274 57.5783 59.6614 62.9727 59.6614 62.9727C58.2043 63.4095 53.6898 62.8787 53.6898 62.8787C32.6103 65.0235 25.0354 67.2434 25.0354 67.2434C25.0354 67.2434 26.9588 68.1198 26.5591 68.7012C26.1579 69.2826 20.321 73.507 18.5019 75.1065C16.6813 76.7061 14.1828 76.6121 14.1828 76.6121C12.2782 77.4784 11.9364 79.0171 12.0088 80.0353C12.0813 81.0534 12.846 85.9243 12.8822 86.5794C12.9184 87.2331 11.8988 87.1608 12.2275 88.3612C12.5549 89.5615 15.4313 90.9788 15.4313 90.9788L20.1588 91.4329C19.8734 90.0316 19.0653 85.3675 20.2471 82.4158C21.652 78.9101 25.2454 71.8019 35.229 71.8019C43.2992 71.8019 51.0233 77.072 51.0233 88.1703C51.0233 88.9932 51.0248 89.7221 51.0262 90.3743L121.318 89.158L121.282 87.3806C121.282 87.3806 123.436 71.5676 137.272 72.2546C149.153 72.8432 151.285 83.4238 149.875 89.7206C152.477 89.4965 158.922 88.9498 159.82 88.9787C160.948 89.0149 161.422 88.0705 161.422 88.0705C167.721 86.2526 165.535 84.1801 165.535 84.1801C166.918 81.4179 166.81 79.6 166.992 77.0185C167.172 74.4384 164.223 74.1839 164.223 74.1839Z" fill="white"/>
<path d="M137.269 72.2532C123.433 71.5662 121.279 87.3792 121.279 87.3792L121.368 91.7801C122.242 91.7786 122.719 91.7772 122.719 91.7772C122.5 88.8327 122.61 74.1333 137.391 73.9713C150.68 73.8252 148.787 89.8132 148.787 89.8132C148.787 89.8132 149.205 89.7756 149.873 89.7192C151.282 83.4238 149.15 72.8433 137.269 72.2532Z" fill="white"/>
<path d="M35.2258 71.8005C25.2437 71.8005 21.6489 78.9087 20.244 82.4144C19.0621 85.3661 19.8703 90.0302 20.1556 91.4315L21.1072 91.5227C19.6516 83.4527 23.0364 72.0377 36.6163 73.1643C50.1961 74.2909 50.451 89.4502 50.451 90.6867C50.451 91.9233 50.7421 92.3947 50.7421 92.3947C50.7957 92.3817 50.8956 92.3687 51.0347 92.3571C51.0245 91.3245 51.0188 89.9578 51.0188 88.1674C51.0202 77.0706 43.2961 71.8005 35.2258 71.8005Z" fill="white"/>
<path d="M62.0918 64.9164C62.0918 64.9164 80.1963 52.437 82.8381 51.98C82.8381 51.98 94.7755 48.6508 104.506 49.5749C114.236 50.4991 132.22 51.9728 132.736 57.6072C133.251 63.2432 132.414 62.2135 132.414 62.2135L62.0918 64.9164Z" fill="#3C4660"/>
<path d="M99.6064 50.113L96.8994 63.735L102.7 63.453L103.668 50.113H99.6064Z" fill="#313D49"/>
<path d="M35.4885 98.1509C41.8162 97.9929 46.8176 92.7427 46.6594 86.4242C46.5011 80.1058 41.2432 75.1118 34.9154 75.2698C28.5877 75.4278 23.5863 80.678 23.7445 86.9964C23.9028 93.3149 29.1607 98.3089 35.4885 98.1509Z" fill="#27262C"/>
<path d="M26.5674 86.7139C26.5674 91.4879 30.4432 95.3594 35.2257 95.3594C40.0067 95.3594 43.8826 91.4893 43.8826 86.7139C43.8826 81.9399 40.0067 78.0684 35.2257 78.0684C30.4447 78.0698 26.5674 81.9399 26.5674 86.7139Z" fill="#616161"/>
<path d="M32.2217 80.9189L34.2248 83.1924C34.2248 83.1924 34.5709 83.7376 35.0445 83.7376C35.5182 83.7376 35.8643 83.3558 35.8643 83.3558L37.9601 80.9189C37.9601 80.9189 38.2512 80.5732 37.9601 80.3375C37.669 80.1003 36.6464 79.7561 35.227 79.7561C33.8062 79.7547 31.7104 80.1365 32.2217 80.9189Z" fill="#27262C"/>
<path d="M32.2222 92.5103L34.2252 90.2369C34.2252 90.2369 34.5714 89.6917 35.045 89.6917C35.5186 89.6917 35.8648 90.0734 35.8648 90.0734L37.9591 92.5103C37.9591 92.5103 38.2517 92.856 37.9591 93.0917C37.668 93.3289 36.6454 93.6745 35.2261 93.6745C33.8067 93.6745 31.7109 93.2927 32.2222 92.5103Z" fill="#27262C"/>
<path d="M41.1021 83.8242L38.8253 85.8244C38.8253 85.8244 38.2793 86.17 38.2793 86.6429C38.2793 87.1158 38.6617 87.4615 38.6617 87.4615L41.1021 89.5527C41.1021 89.5527 41.4483 89.8434 41.6844 89.5527C41.9205 89.262 42.2681 88.241 42.2681 86.8237C42.2681 85.4064 41.8857 83.3152 41.1021 83.8242Z" fill="#27262C"/>
<path d="M29.4931 83.8242L31.7699 85.8244C31.7699 85.8244 32.3159 86.17 32.3159 86.6429C32.3159 87.1158 31.9336 87.4615 31.9336 87.4615L29.4931 89.5527C29.4931 89.5527 29.1469 89.8434 28.9094 89.5527C28.6733 89.262 28.3271 88.241 28.3271 86.8237C28.3271 85.4064 28.7095 83.3152 29.4931 83.8242Z" fill="#27262C"/>
<path d="M147.47 86.714C147.47 93.034 142.338 98.1579 136.009 98.1579C129.679 98.1579 124.548 93.034 124.548 86.714C124.548 80.394 129.679 75.27 136.009 75.27C142.338 75.27 147.47 80.394 147.47 86.714Z" fill="#27262C"/>
<path d="M127.378 86.7139C127.378 91.4878 131.254 95.3594 136.036 95.3594C140.817 95.3594 144.693 91.4893 144.693 86.7139C144.693 81.9399 140.817 78.0684 136.036 78.0684C131.254 78.0698 127.378 81.9399 127.378 86.7139Z" fill="#616161"/>
<path d="M133.031 80.9189L135.034 83.1923C135.034 83.1923 135.38 83.7376 135.854 83.7376C136.327 83.7376 136.674 83.3558 136.674 83.3558L138.768 80.9189C138.768 80.9189 139.059 80.5732 138.768 80.3375C138.477 80.1003 137.454 79.7561 136.035 79.7561C134.615 79.7547 132.521 80.1365 133.031 80.9189Z" fill="#27262C"/>
<path d="M133.031 92.5103L135.035 90.2369C135.035 90.2369 135.381 89.6917 135.854 89.6917C136.328 89.6917 136.674 90.0734 136.674 90.0734L138.768 92.5103C138.768 92.5103 139.061 92.856 138.768 93.0917C138.477 93.3289 137.455 93.6745 136.035 93.6745C134.616 93.6745 132.522 93.2927 133.031 92.5103Z" fill="#27262C"/>
<path d="M141.911 83.8242L139.634 85.8243C139.634 85.8243 139.087 86.17 139.087 86.6429C139.087 87.1158 139.469 87.4615 139.469 87.4615L141.91 89.5527C141.91 89.5527 142.256 89.8434 142.492 89.5527C142.73 89.262 143.076 88.241 143.076 86.8237C143.077 85.4064 142.695 83.3152 141.911 83.8242Z" fill="#27262C"/>
<path d="M130.302 83.8242L132.579 85.8243C132.579 85.8243 133.125 86.17 133.125 86.6429C133.125 87.1158 132.743 87.4615 132.743 87.4615L130.302 89.5527C130.302 89.5527 129.956 89.8434 129.718 89.5527C129.482 89.262 129.135 88.241 129.135 86.8237C129.136 85.4064 129.519 83.3152 130.302 83.8242Z" fill="#27262C"/>
<path d="M126.295 52.5223C126.295 52.5223 116.87 49.0456 101.715 49.4563C101.715 49.4563 88.975 49.3696 82.9383 51.4622C82.9383 51.4622 73.6094 54.965 60.4814 65.4313H61.9631H62.5439L63.242 65.3605L133.824 62.5678C133.792 61.9141 133.919 60.6906 133.725 59.2545C133.327 56.3028 132.293 53.9902 126.295 52.5223ZM131.726 61.9503L99.8609 63.1376L62.9205 64.8167C66.4892 62.3335 79.8591 53.4739 83.8392 51.9901C88.4811 50.2604 102.658 50.1563 104.187 50.233C105.717 50.3096 121.882 50.7681 129.135 54.5109C129.137 54.5109 133.835 55.7127 131.726 61.9503Z" fill="#242E3E"/>
<path d="M58.1726 88.3251L58.1624 88.2065C58.1509 88.0749 56.9705 75.0357 57.7743 71.0601C58.5579 67.1856 59.1126 66.2355 61.7327 64.286L61.8645 64.1876C72.4737 56.2912 80.4339 51.6272 84.8847 50.7001C88.8749 49.8686 96.2543 49.3118 103.248 49.3118C108.455 49.3118 115.838 49.6082 121.43 51.0255C131.9 53.6765 133.205 55.2586 133.689 58.2335C134.151 61.0797 134.054 70.7838 133.243 72.5902L133.216 72.648L133.154 72.6625C133.047 72.6871 122.503 75.2353 121.527 87.5181L121.518 87.6352L58.1726 88.3251ZM103.248 49.5692C96.2703 49.5692 88.9111 50.1245 84.9368 50.9532C80.586 51.8586 72.4476 56.6325 62.018 64.3944L61.8847 64.4928C59.3327 66.3917 58.7925 67.3187 58.0249 71.1107C57.2688 74.8492 58.2899 86.7443 58.4058 88.0648L121.278 87.3792C122.283 75.5101 132.13 72.6625 133.03 72.4267C133.784 70.5524 133.874 60.9944 133.432 58.2726C132.967 55.4134 131.687 53.8876 121.365 51.2728C115.8 49.8657 108.441 49.5692 103.248 49.5692Z" fill="#B2B2B2"/>
<path d="M123.535 77.8688C123.544 78.3171 109.257 78.5745 91.6334 78.9072C74.0097 79.2398 59.7231 79.5247 59.7158 79.0764C59.7071 78.6281 74.0445 78.1523 91.6681 77.8196C109.29 77.4855 123.526 77.4205 123.535 77.8688Z" fill="#B2B2B2"/>
<path d="M98.6275 87.7726C97.5659 80.0715 99.7529 62.9496 99.7746 62.7775L101.458 49.4246L101.714 49.4564L100.031 62.8094C100.009 62.9815 97.8266 80.0686 98.8824 87.7364L98.6275 87.7726Z" fill="#B2B2B2"/>
<path d="M88.3436 68.3108C88.3436 68.3108 88.277 67.3144 90.0063 66.8762C91.7357 66.438 92.2267 66.3975 92.7988 66.3975C93.3709 66.3975 96.9745 66.6361 97.0005 67.9637C97.0266 69.2913 94.3283 69.7295 93.2768 69.8091C92.2267 69.8915 88.277 70.0116 88.3436 68.3108Z" fill="#B2B2B2"/>
<path d="M122.375 67.5384C122.375 67.5384 122.308 66.5419 124.038 66.1037C125.765 65.6655 126.258 65.625 126.83 65.625C127.402 65.625 131.006 65.8636 131.033 67.1913C131.059 68.5189 128.359 68.9571 127.309 69.0367C126.258 69.1191 122.308 69.2377 122.375 67.5384Z" fill="#B2B2B2"/>
<path d="M95.5454 67.8726C95.5527 68.1922 95.2992 68.4583 94.9791 68.4655L90.2111 68.5769C89.891 68.5841 89.6246 68.331 89.6173 68.0114L89.6144 67.8827C89.6072 67.5631 89.8606 67.2984 90.1807 67.2897L94.9487 67.1784C95.2688 67.1711 95.5353 67.4242 95.5425 67.7438L95.5454 67.8726Z" fill="white"/>
<path d="M129.578 67.1001C129.585 67.4197 129.331 67.6858 129.011 67.6931L124.243 67.8044C123.923 67.8117 123.658 67.5586 123.65 67.2389L123.647 67.1102C123.639 66.7906 123.893 66.5259 124.213 66.5173L128.981 66.4059C129.301 66.3987 129.567 66.6518 129.575 66.9714L129.578 67.1001Z" fill="white"/>
<defs>
<radialGradient id="paint0_radial" cx="0" cy="0" r="1" gradientUnits="userSpaceOnUse" gradientTransform="translate(89.6365 98.4403) rotate(90) scale(3.5597 68.9227)">
<stop offset="0.090216" stop-color="#A3A3A3"/>
<stop offset="0.298553" stop-color="#AFAFAF"/>
<stop offset="0.803771" stop-color="#B9B9B9" stop-opacity="0.62173"/>
<stop offset="1" stop-color="#C9C9C9" stop-opacity="0"/>
</radialGradient>
</defs>
</svg>