<svg width="179" height="128" viewBox="0 0 179 128" fill="none" xmlns="http://www.w3.org/2000/svg">
<ellipse cx="90.5665" cy="98.4599" rx="70.6649" ry="3.54" fill="url(#paint0_radial)"/>
<path d="M138.7 46.3089C138.7 46.3089 140.289 43.8496 144.31 44.1919C144.31 44.1919 145.48 45.5265 143.958 46.8324C142.437 48.1384 138.7 46.3089 138.7 46.3089Z" fill="#100607"/>
<path d="M170.587 76.5942C170.499 76.3512 170.392 76.1642 170.26 76.0506C169.073 75.0295 168.942 74.1076 168.942 74.1076L169.235 69.0522C169.314 67.6888 165.659 67.6313 161.756 66.4749C157.853 65.3186 156.199 62.5917 156.32 61.7058C156.44 60.8199 158.568 60.3553 163.662 60.85C168.757 61.3448 168.015 60.6199 168.015 60.6199C165.263 59.1156 166.075 60.2402 160.864 58.1548C155.654 56.0708 151.131 51.657 151.131 51.657C151.131 51.657 158.321 49.4263 157.425 48.5561C156.529 47.686 136.171 45.313 117.36 44.5105C98.5477 43.7094 91.6776 44.0114 87.2951 44.3594C82.9126 44.7075 67.9377 49.0437 61.9087 52.7299C55.8798 56.416 48.8904 57.942 47.8554 58.2742C46.8205 58.6064 38.4158 59.0811 27.7301 60.2705C17.0445 61.4599 12.6405 64.1853 12.6405 64.1853C12.6405 64.1853 9.51112 66.4303 7.86033 72.2249C7.6364 73.0102 7.48711 73.7279 7.3938 74.3851C6.79952 78.5761 8.55939 80.2703 8.88524 80.8499C9.26134 81.5201 8.16463 82.1673 8.16463 82.1673C6.97893 82.711 7.00192 83.1698 7.00192 83.1698C6.82249 85.0639 21.1026 87.2816 21.1026 87.2816C21.1026 87.2816 19.9312 68.4812 37.8229 69.6721C55.7132 70.8629 53.1796 88.0252 53.1796 88.0252L55.2711 88.087C55.9903 87.68 57.3195 87.2759 59.79 87.1608C65.2347 86.9063 117.35 87.7678 119.497 88.2711C120.465 88.4984 120.904 89.2606 121.096 90.0301L123.333 90.0962C123.333 90.0962 123.416 70.1525 141.187 72.1947C158.958 74.237 155.744 89.2275 155.744 89.2275C157.025 88.6278 162.287 87.8224 164.011 87.5391C165.735 87.2557 168.843 84.5936 169.783 84.2973C170.619 84.0284 171.283 78.5315 170.587 76.5942Z" fill="#353544"/>
<path d="M120.034 87.0422C120.103 87.2853 123.331 90.0912 123.331 90.0912C123.331 90.0912 126.947 90.3156 127.951 89.8467C128.953 89.3779 152.074 88.9665 152.074 88.9665C152.074 88.9665 155.333 89.6123 156.211 89.0471C157.09 88.4819 161.116 76.0384 161.116 76.0384L137.983 66.3477C137.983 66.3477 116.876 76.0154 120.034 87.0422Z" fill="#040402"/>
<path d="M156.295 48.7856C156.295 48.7856 157.327 48.4016 157.473 48.8359C157.62 49.2703 156.174 50.8609 161.931 54.8391C167.688 58.8172 166.867 60.6782 166.867 60.6782L149.886 56.1004C149.886 56.1004 146.502 49.2861 156.295 48.7856Z" fill="#3C4660"/>
<path d="M165.747 60.3244C165.747 60.3244 168.805 60.4553 169.291 61.8834C169.779 63.3115 169.306 69.0428 168.854 69.4527C168.401 69.8611 151.876 63.5287 151.876 63.5287C151.876 63.5287 155.733 58.4907 165.747 60.3244Z" fill="#D83235"/>
<path d="M19.0051 82.6916C19.0051 82.6916 20.2727 87.1314 21.1009 87.2781C21.9306 87.4248 24.3953 86.9704 25.159 86.9099C25.9213 86.8495 46.8232 91.0606 46.8232 91.0606C46.8232 91.0606 51.2272 87.7053 53.1464 85.4358C55.0671 83.1663 58.2022 71.4678 58.2022 71.4678L39.1391 67.8162L30.054 68.8258L23.1005 73.7431L19.0051 82.6916Z" fill="#040402"/>
<path d="M117.657 88.2934L117.508 88.0762C117.538 88.0618 120.498 86.5531 121.181 85.1149C121.24 84.9898 121.326 84.7712 121.436 84.4951C122.028 82.9892 123.414 79.4656 126.221 76.3433C129.733 72.44 134.234 70.4854 139.603 70.5343C146.731 70.5991 151.052 73.3273 153.419 75.604C155.72 77.8174 156.675 80.0481 156.854 80.5026C162.268 80.8319 170.358 80.9153 170.718 79.7993L171.001 79.8669C170.912 80.1416 170.643 80.9772 163.607 80.9642C160.179 80.9585 156.771 80.7499 156.737 80.7471L156.636 80.7413L156.607 80.6579C156.599 80.6335 155.722 78.1899 153.195 75.7637C150.867 73.5287 146.617 70.8507 139.603 70.786C131.363 70.7112 125.346 75.3495 121.717 84.5756C121.602 84.8676 121.52 85.0775 121.457 85.2098C120.734 86.7271 117.782 88.2301 117.657 88.2934Z" fill="#B2B2B2"/>
<path d="M21.1681 73.4884C21.1681 73.4884 26.2769 64.3816 37.1765 66.0657C48.0774 67.7499 57.7353 75.046 57.7353 75.046C57.7353 75.046 57.474 79.5591 81.5512 79.2082C105.628 78.8573 116.884 78.3525 116.884 78.3525C116.884 78.3525 120.381 77.3213 109.17 77.0408C97.9586 76.7603 67.1161 75.2488 67.1161 75.2488C67.1161 75.2488 57.843 73.1605 58.7803 68.8343C59.7177 64.5081 81.6459 69.621 96.1198 68.935C110.594 68.249 127.805 71.728 127.805 71.728C127.805 71.728 135.707 65.8212 143.137 68.0836C150.567 70.3459 158.062 76.9603 159.047 77.002C159.852 77.0365 167.747 78.1166 170.586 76.5921C170.499 76.349 170.391 76.1621 170.259 76.0484C169.072 75.0273 168.941 74.1054 168.941 74.1054L169.234 69.05C169.313 67.6866 165.658 67.6291 161.755 66.4728C157.852 65.3164 156.199 62.5896 156.319 61.7036C156.44 60.8177 158.567 60.3531 163.662 60.8479C168.756 61.3426 168.014 60.6178 168.014 60.6178C165.262 59.1134 166.075 60.2381 160.864 58.1526C155.653 56.0687 151.13 51.6548 151.13 51.6548C151.13 51.6548 158.32 49.4241 157.424 48.554C156.529 47.6838 136.171 45.3108 117.359 44.5083C98.5472 43.7072 91.677 44.0092 87.2945 44.3572C82.912 44.7053 67.9372 49.0415 61.9082 52.7277C55.8792 56.4138 48.8899 57.9398 47.8549 58.272C46.82 58.6043 38.4153 59.0789 27.7296 60.2683C17.044 61.4577 12.64 64.1831 12.64 64.1831C12.64 64.1831 9.51063 66.4282 7.85984 72.2228C7.63591 73.008 7.48662 73.7257 7.39331 74.383C10.2327 73.5919 16.7124 72.1005 21.1681 73.4884Z" fill="#EBEBEB"/>
<path d="M159.048 77.0034C158.064 76.9617 150.569 70.3473 143.139 68.085C135.709 65.8227 127.807 71.7294 127.807 71.7294C127.807 71.7294 110.595 68.2518 96.1215 68.9364C81.6477 69.6225 59.7194 64.5096 58.7821 68.8357C57.8447 73.1619 67.1179 75.2502 67.1179 75.2502C67.1179 75.2502 97.9604 76.7603 109.171 77.0422C120.381 77.3226 116.886 78.3539 116.886 78.3539C116.886 78.3539 105.63 78.8572 81.5529 79.2096C57.4758 79.5605 57.737 75.0474 57.737 75.0474C57.737 75.0474 48.0777 67.7513 37.1782 66.0672C26.2787 64.383 21.1698 73.4898 21.1698 73.4898C16.7141 72.1019 10.2344 73.5919 7.39502 74.3829C6.80074 78.5739 8.56061 80.2681 8.88646 80.8477C9.26256 81.5179 8.16585 82.1651 8.16585 82.1651C6.98015 82.7088 7.00314 83.1676 7.00314 83.1676C6.82371 85.0617 21.1038 87.2794 21.1038 87.2794C21.1038 87.2794 23.7163 71.8373 35.3494 72.0617C50.2783 72.3493 49.9912 88.4573 49.9912 88.4573L55.2723 88.0834C55.9915 87.6764 57.3208 87.2722 59.7912 87.1572C65.236 86.9026 117.351 87.7641 119.498 88.2675C120.466 88.4947 120.905 89.257 121.097 90.0264L125.354 90.0926C125.354 90.0926 123.299 72.7952 141.144 72.7808C154.063 73.7875 152.628 88.8888 152.628 88.8888C153.908 88.2891 162.288 87.8187 164.014 87.5354C165.738 87.2521 168.845 84.5899 169.786 84.2937C170.621 84.0305 171.286 78.5322 170.59 76.5949C167.749 78.118 159.854 77.0364 159.048 77.0034Z" fill="#EBEBEB"/>
<path d="M119.496 88.2659C117.348 87.7626 65.2334 86.9011 59.7886 87.1556C57.3182 87.2707 55.9875 87.6748 55.2698 88.0818L121.095 90.0249C120.902 89.2554 120.463 88.4932 119.496 88.2659Z" fill="#040402"/>
<path d="M10.4571 69.9331C10.4571 69.9331 10.4901 67.2206 12.9261 65.4933C15.3621 63.766 25.1074 61.3598 25.7405 62.2372C26.3735 63.113 23.4983 64.1716 22.6714 64.9151C21.8446 65.6587 17.4349 70.0022 15.3118 70.1316C13.1873 70.261 10.1829 71.4821 10.4528 70.0051" fill="#EBE4E1"/>
<path d="M8.24985 75.6444C8.02878 75.4545 7.8594 75.1036 8.79247 74.9986C9.72554 74.8936 12.3209 74.8419 12.3209 74.8419C12.3209 74.8419 13.4176 74.816 14.1985 75.8989C14.9794 76.9819 15.8307 79.0256 15.8307 79.0256C15.8307 79.0256 16.8341 80.6249 15.1301 80.5702C13.4262 80.5156 9.15996 80.3156 9.15996 80.3156C9.15996 80.3156 10.1304 79.923 9.98824 79.1205C9.84469 78.318 9.17142 76.119 9.17142 76.119C9.17142 76.119 8.47092 75.8357 8.24985 75.6444Z" fill="#EBE4E1"/>
<path d="M9.49534 75.6069L11.0743 79.2743C11.0743 79.2743 11.2767 79.7892 12.2902 79.7604C13.3036 79.7317 14.8912 79.9805 14.8912 79.9805C14.8912 79.9805 15.4496 80.1674 14.9357 79.2225C14.4219 78.2776 12.8672 75.6429 12.8672 75.6429C12.8672 75.6429 12.8529 75.5336 11.8682 75.4199C10.8849 75.3063 9.20825 75.5062 9.20825 75.5062C9.20825 75.5062 9.26136 75.6515 9.49534 75.6069Z" fill="#27262C"/>
<path d="M53.7999 59.5061C53.7999 59.5061 64.5315 53.2111 70.7141 50.851C76.8967 48.4909 80.3619 47.1864 88.7005 46.312C97.0392 45.439 105.899 46.1782 105.899 46.1782L124.541 46.9721C124.541 46.9721 138.408 47.7516 141.504 49.6271C144.601 51.501 146.609 53.3477 146.24 54.1761C145.871 55.0045 140.899 57.8737 137.314 58.1614C133.73 58.449 108.11 59.6499 108.11 59.6499L82.7419 60.5502L55.8943 61.1672C55.8943 61.1672 53.553 61.4218 53.2961 60.4912C53.1382 59.916 53.7999 59.5061 53.7999 59.5061Z" fill="#3C4660"/>
<path d="M58.1828 61.2174L59.9139 57.1603C59.9139 57.1603 70.7245 51.396 73.7691 50.5086C76.8138 49.6198 84.7764 46.3795 100.344 47.3187C100.344 47.3187 113.49 47.031 129.265 48.0564L132.756 58.3367L134.152 58.2131L129.75 47.4639C129.75 47.4639 91.1283 44.2654 80.0221 47.7386C68.9172 51.2119 52.1079 59.0314 53.506 60.7443L58.1828 61.2174Z" fill="#282C38"/>
<path d="M97.6714 46.6831L93.1311 60.031L101.352 59.7535L102.098 46.8442L97.6714 46.6831Z" fill="#292C3B"/>
<path d="M124.663 58.8962L124.026 58.8357L125.454 47.8219L126.104 47.655L124.663 58.8962Z" fill="#292C3B"/>
<path d="M129.748 47.9988C129.748 47.9988 131.482 48.0419 132.989 48.216C134.497 48.39 138.382 48.5381 142.018 50.9041C145.655 53.27 145.174 54.97 144.99 55.2418C144.806 55.5136 145.65 55.0692 145.65 55.0692L145.899 53.8971L143.234 50.5776L138.876 48.7064L129.327 47.3386L129.748 47.9988Z" fill="#292C3B"/>
<path d="M136.086 48.3513C136.086 48.3513 140.573 48.7986 143.796 52.0735C146.358 54.6766 145.391 55.1671 143.561 56.135C141.732 57.1029 138.577 58.0866 138.577 58.0866C138.577 58.0866 146.066 56.4068 146.752 54.5098C147.441 52.6128 143.297 48.5297 136.086 48.3513Z" fill="#D8D6E1"/>
<path d="M58.5488 87.8532C55.9707 82.6138 54.6314 78.233 54.9314 70.1027C55.2458 61.6288 59.4517 56.1103 59.4948 56.0557L59.7388 56.1952C59.6972 56.2498 55.5357 61.7122 55.2242 70.1114C54.9242 78.1942 56.2563 82.5491 58.8187 87.7555L58.5488 87.8532Z" fill="#B2B2B2"/>
<path d="M95.4925 87.6865C95.4854 87.652 94.6456 84.1902 94.2365 82.3076C93.8274 80.4279 94.4863 76.9502 94.5006 76.7144L95.2772 63.2714C95.3332 62.3006 96.8519 60.4021 97.0371 60.1662L100.247 46.1206L100.548 46.1695L97.3615 60.2669L97.3486 60.2885C97.3328 60.3086 95.7351 62.3452 95.6806 63.2886L94.9011 76.7546C94.8939 76.7906 94.1748 80.4048 94.581 82.263C94.9901 84.1442 95.7725 87.6031 95.7811 87.6376L95.4925 87.6865Z" fill="#B2B2B2"/>
<path d="M133.478 71.9122L133.255 71.7482C134.023 70.9816 134.884 63.49 134.968 61.8145C135.038 60.4093 133.443 58.4203 133.427 58.4016L133.407 58.3685L129.483 47.845L129.763 47.7688L133.68 58.275C133.845 58.4821 135.332 60.3906 135.26 61.8274C135.212 62.8385 134.392 71.0004 133.478 71.9122Z" fill="#B2B2B2"/>
<path d="M54.922 61.3239C53.8942 61.2808 53.2813 61.0032 53.1478 60.5214C52.9669 59.8685 53.6789 59.4183 53.7105 59.3996C53.821 59.3349 64.5282 53.0686 70.652 50.7315C76.8475 48.3671 80.2596 47.0641 88.6815 46.1825C93.832 45.6432 99.1576 45.7798 102.723 45.9322C104.664 46.0142 105.893 46.1868 105.906 46.1868L124.541 46.9807C125.111 47.0051 138.492 47.7156 141.589 49.5896C144.21 51.176 146.847 53.211 146.382 54.2566C145.996 55.1238 140.936 58.0189 137.33 58.308C133.784 58.5928 108.376 59.7764 108.119 59.7879L82.7501 60.6839L55.901 61.2981C55.8953 61.3009 55.4517 61.3455 54.922 61.3239ZM102.715 46.0631C99.1619 45.9121 93.8493 45.8747 88.7189 46.4126C80.3414 47.2899 76.9437 48.6016 70.7754 50.9559C64.6775 53.2829 53.9918 59.5434 53.8856 59.6067C53.8842 59.6082 53.3114 59.9763 53.4449 60.4567C53.5698 60.9054 54.3249 61.0334 54.9364 61.0593C55.4374 61.0809 55.8709 61.0363 55.8752 61.0348L82.7372 60.4179L108.102 59.5175C108.356 59.506 133.758 58.3138 137.298 58.029C140.898 57.7399 145.783 54.8275 146.095 54.1286C146.416 53.4052 144.496 51.5355 141.417 49.6716C138.391 47.8393 124.673 46.985 124.534 46.9793L105.894 46.1854C105.877 46.1868 104.648 46.1451 102.715 46.0631Z" fill="#D8D6E1"/>
<path d="M20.0897 81.5554L8.81404 81.0751C8.73365 81.0722 8.67193 80.9945 8.67624 80.9255C8.68054 80.8564 8.74946 80.7845 8.83128 80.7874L19.9763 81.262C20.1055 80.5472 20.8032 77.5486 23.1229 74.6146C25.513 71.5915 30.1596 68.0377 38.7136 68.4015C45.9627 68.7108 49.8845 72.2948 51.897 75.2589C54.0732 78.4633 54.5469 81.6331 54.5512 81.6647C54.5612 81.7338 54.5038 81.7927 54.4234 81.8014C54.343 81.81 54.2698 81.7596 54.2598 81.6906C54.2555 81.659 53.7875 78.5266 51.6386 75.3654C49.662 72.4588 45.812 68.9294 38.6992 68.6259C30.2816 68.2678 25.7154 71.7324 23.3669 74.7023C20.8189 77.9254 20.2519 81.3411 20.2462 81.3757C20.2361 81.4418 20.1658 81.5583 20.0897 81.5554Z" fill="#B2B2B2"/>
<path d="M60.2592 60.9543C60.2592 60.9543 61.3386 56.4742 64.7551 56.0471C68.1715 55.6199 68.6452 58.3281 68.6711 58.5021C68.6969 58.6776 69.1707 60.9758 66.5021 61.2189C63.8349 61.4634 60.1572 62.0933 60.2592 60.9543Z" fill="#3A394B"/>
<path d="M81.9662 64.3342C81.982 63.5734 84.0103 63.1203 86.3343 62.9981C88.6584 62.8758 90.9624 63.1217 91.1274 63.7186C91.294 64.3155 89.2139 65.6516 86.4621 65.4848C83.7117 65.3179 81.9504 65.095 81.9662 64.3342Z" fill="#B2B2B2"/>
<path d="M82.7242 64.4163C82.7242 64.4163 83.0098 63.7647 86.254 63.5591C89.4982 63.3534 90.3265 63.3893 90.3064 63.7316C90.2863 64.0754 88.8236 64.6507 87.9939 64.6406C87.1656 64.6291 82.5821 65.0735 82.7242 64.4163Z" fill="white"/>
<path d="M121.33 62.4703C121.346 61.7095 123.374 61.2551 125.698 61.1343C128.023 61.012 130.326 61.2579 130.492 61.8548C130.657 62.4516 128.577 63.7877 125.826 63.6209C123.076 63.454 121.316 63.2311 121.33 62.4703Z" fill="#B2B2B2"/>
<path d="M122.09 62.5522C122.09 62.5522 122.376 61.9007 125.62 61.695C128.864 61.4894 129.693 61.5253 129.672 61.8676C129.652 62.2113 128.188 62.7866 127.36 62.7765C126.532 62.765 121.948 63.2094 122.09 62.5522Z" fill="white"/>
<path d="M48.1192 86.8422C47.7848 93.5817 42.063 98.7737 35.3349 98.44C28.6083 98.1049 23.4262 92.3707 23.7607 85.6312C24.0951 78.8917 29.8184 73.6998 36.5436 74.0349C43.2702 74.3685 48.4523 80.1027 48.1192 86.8422Z" fill="#27262C"/>
<path d="M26.7686 85.7794C26.516 90.8706 30.4319 95.2026 35.5135 95.4557C40.595 95.7088 44.9172 91.7854 45.1698 86.6955C45.4225 81.6042 41.508 77.2738 36.4264 77.0206C31.3449 76.7675 27.0213 80.6895 26.7686 85.7794Z" fill="#616161"/>
<path d="M33.0827 79.8984L35.0909 82.4282C35.0909 82.4282 35.4297 83.028 35.9335 83.0539C36.4374 83.0783 36.8249 82.69 36.8249 82.69L39.1791 80.2019C39.1791 80.2019 39.5063 79.8495 39.2092 79.582C38.9121 79.3145 37.8441 78.8917 36.3354 78.8169C34.8267 78.7407 32.5817 79.0384 33.0827 79.8984Z" fill="#27262C"/>
<path d="M32.4701 92.2584L34.7195 89.9399C34.7195 89.9399 35.1171 89.3761 35.6195 89.402C36.1234 89.4264 36.4708 89.8522 36.4708 89.8522L38.568 92.5618C38.568 92.5618 38.8594 92.9458 38.5379 93.1817C38.2163 93.419 37.111 93.7326 35.6023 93.6578C34.0922 93.5844 31.8873 93.0652 32.4701 92.2584Z" fill="#27262C"/>
<path d="M42.3656 83.4666L39.8406 85.48C39.8406 85.48 39.242 85.8195 39.2162 86.3243C39.1918 86.8291 39.5794 87.2174 39.5794 87.2174L42.0627 89.5775C42.0627 89.5775 42.4159 89.9068 42.6814 89.6077C42.9484 89.31 43.3704 88.24 43.4451 86.7284C43.5211 85.2154 43.224 82.9646 42.3656 83.4666Z" fill="#27262C"/>
<path d="M30.0302 82.8523L32.3441 85.1061C32.3441 85.1061 32.9068 85.503 32.881 86.0079C32.8566 86.5127 32.4302 86.8607 32.4302 86.8607L29.7259 88.962C29.7259 88.962 29.3426 89.2539 29.1057 88.9318C28.8703 88.6082 28.5559 87.5022 28.6306 85.9906C28.7067 84.4776 29.2234 82.2684 30.0302 82.8523Z" fill="#27262C"/>
<path d="M151.474 86.8422C151.139 93.5817 145.417 98.7737 138.689 98.44C131.963 98.1049 126.781 92.3707 127.115 85.6312C127.45 78.8917 133.173 73.6998 139.898 74.0349C146.625 74.3685 151.807 80.1027 151.474 86.8422Z" fill="#27262C"/>
<path d="M130.123 85.7794C129.87 90.8706 133.786 95.2026 138.868 95.4557C143.95 95.7088 148.272 91.7854 148.524 86.6955C148.777 81.6042 144.862 77.2738 139.781 77.0206C134.699 76.7675 130.376 80.6895 130.123 85.7794Z" fill="#616161"/>
<path d="M136.437 79.8987L138.446 82.4285C138.446 82.4285 138.784 83.0282 139.288 83.0541C139.792 83.0786 140.18 82.6902 140.18 82.6902L142.534 80.2021C142.534 80.2021 142.861 79.8497 142.564 79.5822C142.267 79.3147 141.199 78.8919 139.69 78.8171C138.181 78.7409 135.936 79.0386 136.437 79.8987Z" fill="#27262C"/>
<path d="M135.825 92.2586L138.074 89.9401C138.074 89.9401 138.472 89.3763 138.974 89.4022C139.478 89.4267 139.825 89.8524 139.825 89.8524L141.922 92.5621C141.922 92.5621 142.214 92.9461 141.892 93.182C141.571 93.4193 140.465 93.7328 138.957 93.658C137.447 93.5847 135.242 93.0655 135.825 92.2586Z" fill="#27262C"/>
<path d="M145.72 83.4668L143.195 85.4803C143.195 85.4803 142.597 85.8197 142.571 86.3245C142.546 86.8293 142.934 87.2176 142.934 87.2176L145.417 89.5777C145.417 89.5777 145.77 89.9071 146.036 89.6079C146.303 89.3102 146.725 88.2402 146.8 86.7287C146.876 85.2157 146.578 82.9649 145.72 83.4668Z" fill="#27262C"/>
<path d="M133.385 82.8526L135.699 85.1063C135.699 85.1063 136.261 85.5033 136.235 86.0081C136.211 86.5129 135.785 86.861 135.785 86.861L133.08 88.9622C133.08 88.9622 132.697 89.2542 132.46 88.932C132.225 88.6084 131.91 87.5024 131.985 85.9908C132.061 84.4778 132.578 82.2687 133.385 82.8526Z" fill="#27262C"/>
<defs>
<radialGradient id="paint0_radial" cx="0" cy="0" r="1" gradientUnits="userSpaceOnUse" gradientTransform="translate(90.5665 98.4599) rotate(90) scale(3.54 70.6649)">
<stop offset="0.090216" stop-color="#A3A3A3"/>
<stop offset="0.298553" stop-color="#AFAFAF"/>
<stop offset="0.803771" stop-color="#B9B9B9" stop-opacity="0.62173"/>
<stop offset="1" stop-color="#C9C9C9" stop-opacity="0"/>
</radialGradient>
</defs>
</svg>