<svg width="179" height="128" viewBox="0 0 179 128" fill="none" xmlns="http://www.w3.org/2000/svg">
<ellipse cx="87.8119" cy="98.5696" rx="75.8121" ry="3.88996" fill="url(#paint0_radial)"/>
<path d="M25.9828 87.2708L28.6529 90.0033C28.6529 90.0033 30.9805 89.9305 31.7627 89.3632C32.5433 88.7958 49.8846 90.8962 50.0407 90.7492C50.1969 90.6022 56.0819 90.4474 56.5503 89.9828C57.0187 89.5181 53.791 72.0737 53.791 72.0737L38.8888 68.7549C38.8888 68.7549 25.8792 75.0022 25.9828 87.2708Z" fill="#0B0001"/>
<path d="M119.611 87.7625L123.021 89.847C123.021 89.847 125.911 91.6882 126.953 91.9458C127.995 92.2035 148.043 87.7625 148.043 87.7625C148.043 87.7625 150.387 87.9111 150.387 88.6634C150.387 89.4156 153.876 80.341 153.876 80.341L144.972 71.0784L126.381 71.4403C126.38 71.4403 117.372 82.4429 119.611 87.7625Z" fill="black"/>
<path d="M155.617 87.4212H164.48C164.48 87.4212 165.416 86.2295 165.37 85.5025C165.324 84.7739 156.266 85.5025 156.266 85.5025L155.617 87.4212Z" fill="#EBE4E1"/>
<path d="M80.7966 49.9877C80.7966 49.9877 81.6888 48.6349 83.8395 49.9877C85.9902 51.3405 86.5144 52.5369 85.6748 53.0584C84.8352 53.5784 69.6765 61.1895 69.2034 63.3941C68.7318 65.5987 58.292 66.0144 58.292 66.0144L60.5479 62.0081C60.5495 62.0081 76.5477 51.3421 80.7966 49.9877Z" fill="#2D2D2D"/>
<path d="M79.0586 62.827C79.2658 63.1683 79.1558 63.6124 78.8117 63.8194C78.4676 64.0248 78.0199 63.9158 77.8112 63.5745L75.0838 59.0879C74.8767 58.7465 74.9866 58.3025 75.3307 58.0954C75.6748 57.89 76.1225 57.999 76.3312 58.3404L79.0586 62.827Z" fill="#141414"/>
<path d="M105.056 53.7461C105.056 53.7461 102.287 55.219 102.459 57.8377C102.631 60.458 103.354 61.4821 103.354 61.4821L107.525 62.2139C107.525 62.2139 108.265 57.577 107.916 56.2463C107.567 54.9187 106.812 53.7445 105.056 53.7461Z" fill="#2D2D2D"/>
<path d="M103.934 61.5215C103.934 61.5215 104.138 59.407 104.715 59.0435C105.292 58.68 115.521 58.2628 120.452 58.5236C125.383 58.7843 140.699 57.2229 144.371 59.1999C148.043 61.177 105.513 62.5945 103.934 61.5215Z" fill="#2D2D2D"/>
<path d="M52.9941 62.3732C52.9941 62.3732 54.2527 61.2812 55.0397 61.3839C55.8267 61.4882 59.397 59.7309 61.2577 60.687C63.1185 61.6431 58.2929 64.5051 58.2929 64.5051L52.9941 62.3732Z" fill="#2D2D2D"/>
<path d="M58.293 62.8934C58.293 62.8934 72.6137 51.81 81.4253 49C81.4253 49 82.6313 49.6764 82.3175 50.0921C82.002 50.5077 75.6024 52.1213 61.5971 62.217C61.5971 62.217 81.8443 61.5928 105.134 60.8642C128.424 60.1356 146.395 57.4236 146.589 59.6646C146.785 61.9057 58.5033 64.507 58.293 62.8934Z" fill="#3C4660"/>
<path d="M161.995 61.8012C161.995 61.8012 163.464 63.9348 163.517 64.8198C163.569 65.7048 162.731 69.2274 162.469 69.5546C160.16 72.4166 154.495 68.461 154.495 68.3061C154.495 68.1512 154.179 61.3319 161.995 61.8012Z" fill="#D83235"/>
<path d="M28.6552 90.0035C28.6552 90.0035 26.0854 71.791 41.5596 71.791C57.0337 71.791 55.4597 90.2121 55.4597 90.2121L123.021 89.8487C123.021 89.8487 121.605 72.6255 136.713 72.6255C151.821 72.6255 150.036 89.1722 150.036 89.1722L160.266 87.4037C160.266 87.4037 164.252 87.4038 166.297 82.6689C166.297 82.6689 167.137 82.7732 166.979 81.6274C166.822 80.4832 166.455 80.3789 166.455 80.3789L166.665 75.1762C166.665 75.1762 164.096 73.4583 163.991 72.9384C163.885 72.4184 162.732 68.8799 162.732 68.8799C162.732 68.8799 159.218 69.5563 158.799 69.1928C158.38 68.8293 155.861 65.55 156.124 64.6128C156.387 63.6756 162.471 62.7922 162.471 62.7922C162.471 62.7922 163.729 61.2829 163.153 60.6587C162.576 60.0344 161.841 61.9072 145.894 59.5667C145.894 59.5667 108.283 61.4915 105.398 61.4915C102.513 61.4915 61.0739 63.2095 58.6077 62.6358C56.1416 62.0637 52.1555 61.3872 52.1555 61.3872C52.1555 61.3872 23.9347 64.1972 17.8505 71.1699C17.8505 71.1699 15.5946 73.3556 15.3843 79.5998C15.3843 79.5998 14.5447 80.4848 14.9128 80.5875C15.2808 80.6902 15.4369 81.836 15.5946 82.4081C15.7523 82.9802 15.5946 84.9051 15.5946 84.9051C15.5946 84.9051 13.8119 87.1951 14.5464 87.8194C15.2792 88.4436 19.3178 89.7444 28.6552 90.0035Z" fill="#EBEBEB"/>
<path d="M129.213 59.0941C129.213 59.0941 130.787 56.232 128.007 55.8685C125.227 55.505 122.079 59.5113 121.976 59.5635C121.872 59.6156 129.213 59.0941 129.213 59.0941Z" fill="#2D2D2D"/>
<path d="M17.424 73.8962C17.424 73.8962 17.2233 70.8538 20.6916 70.2453C24.1598 69.6369 27.8145 69.1027 28.0025 69.8234C28.1905 70.5441 24.6601 74.5915 21.931 74.6658C19.202 74.7401 20.0655 74.0194 19.3772 73.9704C18.6874 73.9214 17.5117 74.2945 17.424 73.8962Z" fill="#EBE4E1"/>
<path d="M16.5209 82.7511C16.5209 82.7511 16.2086 81.4599 16.583 81.1992C16.959 80.9384 19.6371 80.4785 20.1756 81.2734C20.7141 82.0683 21.7783 83.8937 21.7655 84.9368C21.7528 85.9799 21.7034 86.601 20.8017 86.514C19.9 86.4271 16.9717 86.7132 16.7965 85.9435C16.6212 85.1739 17.0339 84.0407 16.8714 83.6756C16.8714 83.6756 15.8772 83.8195 15.7689 83.5966C15.6621 83.3738 15.6191 82.8017 15.8565 82.7764C16.0955 82.7511 16.5209 82.7511 16.5209 82.7511Z" fill="#27262C"/>
<path d="M57.7064 69.1168C57.7064 69.3159 57.544 69.4787 57.3416 69.4787H55.1558C54.9551 69.4787 54.791 69.3175 54.791 69.1168C54.791 68.9177 54.9535 68.7549 55.1558 68.7549H57.3416C57.544 68.7549 57.7064 68.9161 57.7064 69.1168Z" fill="white"/>
<path d="M103.9 68.333C103.9 69.2639 103.138 70.0193 102.2 70.0193H100.197C99.2588 70.0193 98.4973 69.2639 98.4973 68.333C98.4973 67.4022 99.2588 66.6467 100.197 66.6467H102.2C103.14 66.6467 103.9 67.4022 103.9 68.333Z" fill="#B2B2B2"/>
<path d="M105.236 68.2728C105.236 68.6063 104.964 68.875 104.629 68.875H97.9527C97.6165 68.875 97.3457 68.6047 97.3457 68.2728C97.3457 67.9409 97.6181 67.6707 97.9527 67.6707H104.629C104.964 67.6707 105.236 67.9409 105.236 68.2728Z" fill="white"/>
<path d="M166.451 79.4133C166.451 79.4133 162.174 81.0207 160.009 81.3178C157.844 81.615 157.984 82.0511 158.283 82.3135C158.583 82.5759 163.38 82.7576 166.456 80.379L166.451 79.4133Z" fill="#DADADA"/>
<path d="M150.026 85.3333C150.026 85.3333 161.785 83.429 161.785 84.5132C161.785 85.5973 150.078 87.2898 150.078 87.2898C150.078 87.2898 150.115 85.8754 150.026 85.3333Z" fill="#DADADA"/>
<path d="M145.348 75.4987L145.329 75.3802C145.439 75.3628 156.35 73.6908 157.789 73.3731C159.18 73.0665 158.949 69.3115 158.946 69.2736L159.067 69.2656C159.078 69.4252 159.306 73.1629 157.815 73.4917C156.374 73.8093 145.458 75.4813 145.348 75.4987Z" fill="#B2B2B2"/>
<path d="M28.9431 69.4775C28.9431 69.4775 29.4211 69.4 30.3196 69.2688C30.7689 69.2024 31.3217 69.1187 31.9733 69.0302C32.6249 68.9401 33.3736 68.8326 34.2132 68.7252C35.0544 68.6193 35.9848 68.5007 36.998 68.3727C37.5046 68.3063 38.032 68.2478 38.58 68.1862C39.128 68.1246 39.6952 68.0598 40.2815 67.9934C40.8677 67.9286 41.4731 67.8559 42.096 67.7911C42.7205 67.7295 43.361 67.6647 44.0206 67.5983C44.6801 67.5335 45.3556 67.4656 46.047 67.3976C46.3927 67.3644 46.7432 67.3265 47.0969 67.2965C47.4506 67.2664 47.809 67.2364 48.1707 67.2064C49.6188 67.0863 51.1259 66.9615 52.6872 66.8303C54.2501 66.7276 55.8655 66.6216 57.5272 66.5126C57.943 66.4857 58.3604 66.4573 58.7825 66.432C59.2031 66.4099 59.6269 66.3862 60.0539 66.364C60.9062 66.3214 61.7697 66.2787 62.6427 66.2345C64.3888 66.1507 66.1715 66.0748 67.9861 65.9989C69.8007 65.9262 71.6439 65.8535 73.5111 65.7792C74.4447 65.7445 75.383 65.7082 76.3278 65.6718C77.2725 65.6386 78.2204 65.6054 79.1731 65.5707C82.9839 65.4379 86.8536 65.3131 90.7249 65.1914C94.5963 65.076 98.4676 64.9685 102.278 64.8673C106.089 64.763 109.839 64.6824 113.47 64.6034C117.099 64.5228 120.609 64.4612 123.937 64.4075C127.265 64.3506 130.412 64.3174 133.316 64.2905C136.22 64.2636 138.884 64.2542 141.243 64.2558C143.603 64.2589 145.661 64.2747 147.356 64.3063C147.78 64.3142 148.18 64.319 148.557 64.3285C148.935 64.3395 149.289 64.349 149.617 64.3585C149.781 64.3632 149.94 64.368 150.092 64.3711C150.243 64.3775 150.39 64.3838 150.528 64.3885C150.807 64.3996 151.06 64.4107 151.286 64.4202C151.513 64.4281 151.713 64.4407 151.885 64.4533C152.058 64.4644 152.204 64.4738 152.32 64.4817C152.555 64.496 152.676 64.5039 152.676 64.5039C152.676 64.5039 152.555 64.4991 152.32 64.4881C152.202 64.4833 152.058 64.477 151.885 64.4691C151.713 64.4612 151.513 64.4517 151.285 64.4486C150.378 64.4264 149.046 64.409 147.353 64.4122C145.659 64.4106 143.603 64.4328 141.243 64.4612C140.064 64.4802 138.809 64.5007 137.485 64.5212C136.161 64.5465 134.77 64.5719 133.319 64.5987C130.416 64.6635 127.27 64.7346 123.943 64.8089C120.617 64.8943 117.109 64.9843 113.48 65.076C109.851 65.1772 106.102 65.2814 102.291 65.3873C98.4803 65.4948 94.6106 65.6102 90.7409 65.7303C86.8712 65.8457 82.9998 65.9658 79.1906 66.0906C77.2852 66.1538 75.3958 66.217 73.5286 66.2787C71.6615 66.3435 69.8182 66.4083 68.0036 66.4715C66.1906 66.5411 64.4063 66.609 62.6618 66.6754C61.7888 66.7118 60.9269 66.7481 60.0746 66.7828C59.6476 66.8018 59.2238 66.8208 58.8033 66.8413C58.3827 66.8619 57.9653 66.8887 57.5495 66.9108C55.8894 67.0057 54.274 67.0974 52.7127 67.1859C51.1514 67.2981 49.6443 67.4055 48.1962 67.5098C47.8345 67.5367 47.4761 67.562 47.1224 67.5873C46.7687 67.6142 46.4182 67.6473 46.0725 67.6757C45.3811 67.7358 44.704 67.7943 44.046 67.8512C43.3865 67.9081 42.7444 67.9619 42.1199 68.0156C41.4954 68.0709 40.89 68.1356 40.3038 68.1925C39.7175 68.251 39.1487 68.3063 38.6007 68.3601C38.0527 68.4154 37.5237 68.4628 37.0155 68.5213C36.0007 68.6319 35.0687 68.733 34.2275 68.8247C33.8069 68.869 33.4087 68.9212 33.0343 68.9638C32.6599 69.0081 32.3094 69.0491 31.9812 69.0871C31.328 69.1614 30.772 69.2325 30.3228 69.291C29.4226 69.4111 28.9431 69.4775 28.9431 69.4775Z" fill="#B2B2B2"/>
<path d="M56.2491 83.674C56.2491 83.674 59.5358 81.5168 70.2783 80.8277C81.0224 80.1371 121.993 74.2659 122.812 80.4089L96.4089 82.0352C96.4089 82.0352 55.0734 85.6038 55.9831 84.1814" fill="#DADADA"/>
<path d="M67.0068 61.5703C67.0068 61.5703 67.394 62.9104 67.241 63.2043C67.0881 63.4982 66.975 64.4891 68.3227 64.8131C69.6689 65.137 70.1596 64.2568 70.1182 63.9218C70.0767 63.5883 69.782 62.6765 69.9748 62.272C70.1691 61.8674 67.0068 61.5703 67.0068 61.5703Z" fill="#231A1D"/>
<path d="M59.1895 87.2709C59.1703 87.2709 59.1496 87.2662 59.1289 87.2568C58.6892 87.0592 58.3706 84.6443 58.232 80.4579C58.0249 74.2248 57.9946 63.6266 60.1151 62.6784L60.1645 62.7874C58.6637 63.4591 58.0042 69.8976 58.3531 80.4531C58.5458 86.2516 59.0222 87.0355 59.164 87.1382C59.1767 87.1477 59.1863 87.1493 59.1895 87.1493L59.2022 87.1398H59.2229C59.5224 87.1366 89.1675 86.7747 96.1279 86.4981C101.925 86.2674 102.448 84.6854 102.953 83.1556C103.058 82.8379 103.166 82.5076 103.321 82.1963C103.928 80.9636 105.373 75.2267 106.428 71.037C106.915 69.0995 107.337 67.4259 107.567 66.6294C108.279 64.1592 106.181 61.5325 106.158 61.5073L106.252 61.4314C106.275 61.4583 108.411 64.1323 107.683 66.6625C107.454 67.4575 107.033 69.1295 106.545 71.0655C105.489 75.2599 104.043 81.003 103.429 82.2484C103.28 82.5534 103.173 82.8774 103.068 83.1919C102.55 84.7613 102.015 86.3828 96.1327 86.6183C89.2344 86.8933 60.0609 87.2504 59.2404 87.2599C59.2261 87.2678 59.2086 87.2709 59.1895 87.2709Z" fill="#B2B2B2"/>
<path d="M72.6944 60.4436C72.6881 60.1765 72.6466 59.8842 72.5574 59.5634C71.9759 57.4963 70.8129 57.7017 70.8129 57.7017C70.8129 57.7017 66.376 58.8491 66.5911 61.022C67.7652 61.0236 71.1554 60.9794 72.6944 60.4436Z" fill="#EBEBEB"/>
<path d="M66.592 61.0206C66.5936 61.0427 66.5968 61.0664 66.6 61.0885C66.9155 63.3041 71.7013 62.5867 71.7013 62.5867C71.7013 62.5867 72.7289 61.9023 72.6954 60.4421C71.1564 60.9794 67.7662 61.0237 66.592 61.0206Z" fill="#160106"/>
<path d="M54.0125 85.5451C54.0125 92.1654 48.6022 97.5325 41.927 97.5325C35.2533 97.5325 29.843 92.1654 29.843 85.5451C29.843 78.9232 35.2533 73.5562 41.927 73.5562C48.6022 73.5577 54.0125 78.9248 54.0125 85.5451Z" fill="#27262C"/>
<path d="M32.8296 85.545C32.8296 90.547 36.9176 94.6007 41.9599 94.6007C47.0022 94.6007 51.0886 90.547 51.0886 85.545C51.0886 80.543 47.0022 76.4893 41.9599 76.4893C36.916 76.4893 32.8296 80.5446 32.8296 85.545Z" fill="#616161"/>
<path d="M38.7886 79.4747L40.9011 81.8563C40.9011 81.8563 41.2659 82.4285 41.7646 82.4285C42.2648 82.4285 42.6297 82.0287 42.6297 82.0287L44.8377 79.4747C44.8377 79.4747 45.1452 79.1128 44.8377 78.8647C44.5303 78.6165 43.4533 78.2546 41.9558 78.2546C40.4598 78.2546 38.2517 78.6544 38.7886 79.4747Z" fill="#27262C"/>
<path d="M38.7886 91.617L40.9011 89.2354C40.9011 89.2354 41.2659 88.6648 41.7662 88.6648C42.2648 88.6648 42.6312 89.0647 42.6312 89.0647L44.8393 91.617C44.8393 91.617 45.1468 91.9789 44.8393 92.227C44.5318 92.4751 43.4533 92.837 41.9574 92.837C40.4598 92.837 38.2517 92.4357 38.7886 91.617Z" fill="#27262C"/>
<path d="M48.1519 82.5185L45.751 84.6141C45.751 84.6141 45.1743 84.976 45.1743 85.4706C45.1743 85.9668 45.5774 86.3288 45.5774 86.3288L48.1519 88.5207C48.1519 88.5207 48.5167 88.8258 48.7653 88.5207C49.0154 88.2157 49.3802 87.1458 49.3802 85.6618C49.3802 84.1779 48.9787 81.9844 48.1519 82.5185Z" fill="#27262C"/>
<path d="M35.9122 82.5185L38.3131 84.6141C38.3131 84.6141 38.8898 84.976 38.8898 85.4706C38.8898 85.9668 38.4867 86.3288 38.4867 86.3288L35.9138 88.5207C35.9138 88.5207 35.5489 88.8258 35.2988 88.5207C35.0487 88.2157 34.6838 87.1458 34.6838 85.6618C34.6838 84.1779 35.0869 81.9844 35.9122 82.5185Z" fill="#27262C"/>
<path d="M148.647 85.5451C148.647 92.1654 143.237 97.5325 136.561 97.5325C129.888 97.5325 124.477 92.1654 124.477 85.5451C124.477 78.9232 129.888 73.5562 136.561 73.5562C143.235 73.5577 148.647 78.9248 148.647 85.5451Z" fill="#27262C"/>
<path d="M127.461 85.545C127.461 90.547 131.549 94.6007 136.592 94.6007C141.634 94.6007 145.72 90.547 145.72 85.545C145.72 80.543 141.634 76.4893 136.592 76.4893C131.549 76.4893 127.461 80.5446 127.461 85.545Z" fill="#616161"/>
<path d="M133.422 79.4747L135.535 81.8563C135.535 81.8563 135.9 82.4285 136.398 82.4285C136.898 82.4285 137.263 82.0287 137.263 82.0287L139.471 79.4747C139.471 79.4747 139.779 79.1128 139.471 78.8647C139.164 78.6165 138.087 78.2546 136.589 78.2546C135.094 78.2546 132.884 78.6544 133.422 79.4747Z" fill="#27262C"/>
<path d="M133.422 91.617L135.535 89.2354C135.535 89.2354 135.901 88.6648 136.4 88.6648C136.899 88.6648 137.265 89.0647 137.265 89.0647L139.473 91.617C139.473 91.617 139.781 91.9789 139.473 92.227C139.166 92.4751 138.087 92.837 136.591 92.837C135.094 92.837 132.884 92.4357 133.422 91.617Z" fill="#27262C"/>
<path d="M142.787 82.5185L140.386 84.6141C140.386 84.6141 139.81 84.976 139.81 85.4706C139.81 85.9668 140.213 86.3288 140.213 86.3288L142.787 88.5207C142.787 88.5207 143.152 88.8258 143.4 88.5207C143.651 88.2157 144.015 87.1458 144.015 85.6618C144.015 84.1779 143.612 81.9844 142.787 82.5185Z" fill="#27262C"/>
<path d="M130.545 82.5185L132.946 84.6141C132.946 84.6141 133.523 84.976 133.523 85.4706C133.523 85.9668 133.12 86.3288 133.12 86.3288L130.547 88.5207C130.547 88.5207 130.182 88.8258 129.932 88.5207C129.682 88.2157 129.317 87.1458 129.317 85.6618C129.317 84.1779 129.719 81.9844 130.545 82.5185Z" fill="#27262C"/>
<defs>
<radialGradient id="paint0_radial" cx="0" cy="0" r="1" gradientUnits="userSpaceOnUse" gradientTransform="translate(87.8119 98.5697) rotate(90) scale(3.88996 75.8121)">
<stop offset="0.090216" stop-color="#A3A3A3"/>
<stop offset="0.298553" stop-color="#AFAFAF"/>
<stop offset="0.803771" stop-color="#B9B9B9" stop-opacity="0.62173"/>
<stop offset="1" stop-color="#C9C9C9" stop-opacity="0"/>
</radialGradient>
</defs>
</svg>