<svg width="179" height="128" viewBox="0 0 179 128" fill="none" xmlns="http://www.w3.org/2000/svg">
<ellipse cx="89.1241" cy="97.9577" rx="74.554" ry="4.04237" fill="url(#paint0_radial)"/>
<path d="M119.162 50.0487C119.162 50.0487 121.351 48.2487 121.882 48.119C122.413 47.9892 122.843 47.8825 122.843 48.2685C122.843 48.6544 121.923 50.0914 122.045 50.6269C122.169 51.1639 119.162 50.0487 119.162 50.0487Z" fill="#B2B2B2"/>
<path d="M149.975 88.1322L146.992 90.9307L142.35 91.2477L119.899 90.7928L53.1643 90.167L51.3939 90.7928C51.3939 90.7928 48.7054 90.7156 47.6087 90.7993C46.512 90.8847 30.8215 91.2477 30.8215 91.2477C30.8215 91.2477 27.5346 91.4201 26.5241 92.1329L23.574 86.2354L25.9992 72.0705C25.9992 72.0705 33.8437 68.5116 34.461 68.4376C35.0783 68.3654 47.0667 68.0025 47.0667 68.0025L67.5795 70.0701L129.204 66.2583L148.313 66.7674L149.975 88.1322Z" fill="black"/>
<path d="M165.23 82.5764C165.23 82.5764 164.802 83.8048 164.876 84.1366C164.951 84.4683 165.769 84.9758 165.769 85.5408C165.769 86.1057 164.876 87.881 163.964 87.9976C163.964 87.9976 163.667 89.5578 162.662 89.5578C161.658 89.5578 155.054 89.773 155.054 89.773C155.054 89.773 162.199 81.5631 165.23 82.5764Z" fill="#333439"/>
<path d="M54.3425 63.5863C54.3425 63.5863 57.8426 60.3345 61.2611 58.6675C64.6812 57.0006 76.4674 50.267 80.9059 49.5066C85.3443 48.7462 84.2053 53.1657 84.2053 53.2905C84.2053 53.4154 55.3765 70.5482 54.3425 63.5863Z" fill="#3C4660"/>
<path d="M155.451 64.9412H162.105L162.622 65.2762C162.622 65.2762 164.928 67.0795 163.139 71.1656C161.348 75.2517 152.496 70.7993 155.451 64.9412Z" fill="#D83235"/>
<path d="M123.691 51.4151L126.793 51.2903C126.793 51.2903 141.854 55.0413 151.328 60.2097C160.802 65.3797 145.642 63.1691 145.642 63.1691C145.642 63.1691 122.339 54.207 123.691 51.4151Z" fill="#3C4660"/>
<path d="M52.946 62.0984C52.946 62.0984 54.9797 61.4447 55.7348 62.0984C56.49 62.7521 56.2519 63.5864 56.2519 63.5864L52.946 62.0984Z" fill="#060A0B"/>
<path d="M26.5242 92.1326C26.5242 92.1326 12.1999 91.052 12.0025 88.3422C12.0025 88.3422 11.9194 87.7608 12.6746 87.3847C12.6746 87.3847 12.1952 78.6327 13.3483 75.9229C14.5014 73.2131 14.4214 69.8792 20.306 67.5865C26.1905 65.2938 40.2673 62.584 53.2709 62.0847C53.2709 62.0847 56.4121 63.2097 58.0822 63.1686C58.0822 63.1686 76.7714 51.3308 81.3446 51.0384C81.3446 51.0384 80.0724 50.122 80.3904 49.7049C80.7085 49.2877 91.5642 47.3284 105.284 48.2465C119.002 49.1629 126.796 51.2897 126.796 51.2897C126.796 51.2897 124.769 52.3326 125.046 52.4985C125.325 52.6643 146.201 59.9185 146.201 59.9185C146.201 59.9185 149.263 60.5853 150.933 59.8347C150.933 59.8347 154.63 60.8776 155.664 60.9597C156.698 61.0435 161.947 60.8349 162.026 61.5017C162.106 62.1684 161.947 63.3772 162.225 63.6269C162.504 63.8765 163.935 66.2118 163.498 67.0034L162.623 65.2527C162.623 65.2527 155.307 65.6288 155.188 66.5863C155.069 67.5454 155.824 70.0467 156.222 70.5049C156.62 70.9631 163.38 70.6724 163.38 70.6724C163.38 70.6724 163.858 74.049 164.494 74.5072C165.13 74.9654 167.038 75.3415 166.999 76.5503C166.96 77.759 167.118 82.7615 165.21 83.0949C165.21 83.0949 162.984 82.8026 161.513 84.6371C160.041 86.4715 158.371 89.0549 155.349 89.8055C152.327 90.556 146.999 90.9305 146.999 90.9305C146.999 90.9305 148.351 72.8337 134.036 72.4165C119.721 71.9994 120.318 90.7925 120.318 90.7925H51.4003C51.4003 90.7925 55.0256 72.047 38.8416 71.3802C22.6498 70.7135 26.5242 92.1326 26.5242 92.1326Z" fill="#EBEBEB"/>
<path d="M116.665 52.3332C111.429 51.016 94.2536 49.4788 86.0315 51.2903C77.811 53.1018 69.379 56.3404 61.5251 63.2021L63.0495 63.1692C64.8951 61.6024 69.5655 58.0255 76.8162 55.0775C86.3997 51.1803 92.7354 50.8501 100.223 51.2903C107.712 51.7304 114.937 51.9488 119.65 54.3647C124.362 56.7806 129.547 60.4035 129.18 60.7878C128.859 61.1245 107.818 62.0968 102.698 62.33L128.709 61.7782C128.709 61.7782 130.332 61.7207 130.332 61.0079C130.332 60.2951 121.901 53.6503 116.665 52.3332Z" fill="white"/>
<path d="M119.649 54.3646C114.936 51.9488 107.709 51.7304 100.222 51.2902C92.7329 50.8517 86.3972 51.1802 76.8152 55.0774C69.5661 58.027 64.8942 61.6023 63.0486 63.1691L102.699 62.3282C107.819 62.0966 128.858 61.1244 129.181 60.7861C129.546 60.4018 124.361 56.7788 119.649 54.3646Z" fill="black"/>
<path d="M70.8975 61.7764C70.8975 61.7764 80.376 55.0232 87.7583 53.7061C95.1406 52.389 103.729 53.1017 103.729 53.1017C103.729 53.1017 102.001 62.049 101.268 62.4333C100.535 62.8176 69.3386 63.0361 69.3386 63.0361L70.8975 61.7764Z" fill="#3C4660"/>
<path d="M108.339 53.4303L107.239 61.4991L123.943 60.8948C123.943 60.8948 125.671 60.949 125.671 60.2904C125.671 59.6335 117.974 52.8818 108.339 53.4303Z" fill="#3C4660"/>
<path d="M73.7944 61.2247C73.8382 60.9406 73.8304 60.6286 73.7474 60.2919C73.3479 58.6644 72.4016 57.068 70.1393 57.8892C67.8771 58.7103 67.5512 59.9979 67.2567 61.2526C67.2567 61.2526 66.03 60.8962 65.9266 61.4694C65.8639 61.8143 66.0801 62.2955 66.395 62.6519C68.7215 63.0427 71.8924 61.9917 73.7944 61.2247Z" fill="#EBEBEB"/>
<path d="M66.3953 62.6518C66.6052 62.8883 66.8605 63.069 67.1097 63.1133C67.7301 63.2217 68.8393 63.4549 69.2388 63.2677C69.6383 63.0805 71.5748 63.3252 72.1952 63.1494C72.6872 63.0098 73.6256 62.3184 73.7948 61.2263C71.8913 61.9916 68.7203 63.0427 66.3953 62.6518Z" fill="white"/>
<path d="M16.9002 70.7222C16.9002 70.7222 15.1847 71.315 14.3841 73.9936C13.5851 76.6721 14.5596 76.0382 14.9309 75.915C15.3007 75.7918 20.6447 75.2204 21.464 75.1169C22.2834 75.0151 22.1863 74.2793 22.4197 73.8901C22.6531 73.5009 24.8779 70.8847 24.2731 70.2098C23.6684 69.5364 17.8951 70.2311 16.9002 70.7222Z" fill="#EBE4E1"/>
<path d="M13.156 81.4762C13.156 81.4762 13.2344 85.503 13.5649 86.0959C13.8971 86.6887 14.7149 87.2816 15.9635 87.4458C17.2122 87.6101 19.5716 87.8137 19.7659 86.1173C19.9617 84.4208 20.2923 81.2315 20.2923 81.2315C20.2923 81.2315 13.0589 81.1083 13.156 81.4762Z" fill="#27262C"/>
<path d="M51.6595 87.9107L51.658 87.7251C51.7692 87.7235 55.0169 87.689 59.6324 87.6397C58.5075 85.843 58.6172 81.9836 58.6219 81.8161C58.6188 81.7093 58.3195 70.4742 59.0449 67.2668C59.7781 64.0314 62.2598 62.665 62.2849 62.6518C62.3569 62.6058 70.0917 57.6609 72.307 56.3963C77.5821 53.3843 82.6833 51.5071 86.6674 51.108C92.4172 50.5332 104.761 50.7795 104.885 50.7828C105.347 50.8288 116.084 51.9062 118.158 52.8226C120.224 53.7357 127.434 58.3523 127.506 58.3999C127.611 58.4557 130.237 59.85 130.383 60.8387C130.41 61.021 130.358 61.1803 130.228 61.3117C129.6 61.9539 127.763 61.9292 125.438 61.898C124.45 61.8849 123.43 61.8717 122.407 61.9095C119.201 62.0294 104.598 62.3874 103.35 62.4186C103.348 62.6502 103.384 63.3236 103.798 63.9148C103.87 64.0183 103.948 64.1234 104.028 64.2318C104.54 64.9232 105.178 65.7838 105.059 67.0664C105.035 67.3275 105.009 67.8334 104.971 68.5346C104.807 71.6567 104.463 78.1504 103.389 80.788C102.038 84.1005 101.288 85.3536 99.5096 86.252C97.7095 87.1602 94.4555 87.5872 92.1728 87.5395C89.9841 87.4919 52.0434 87.9058 51.6595 87.9107ZM98.72 50.9142C94.7484 50.9142 89.7663 50.9865 86.6862 51.2936C82.724 51.6894 77.6479 53.56 72.3932 56.5605C70.181 57.8234 62.4509 62.7652 62.3726 62.8144C62.3428 62.8308 59.9317 64.1611 59.2188 67.3095C58.4982 70.4923 58.7974 81.7028 58.8005 81.8161C58.799 81.8637 58.6846 85.9416 59.8471 87.6365C71.2323 87.5166 90.6295 87.3195 92.179 87.3523C94.4398 87.4 97.6593 86.9795 99.436 86.0828C101.164 85.2108 101.899 83.9773 103.229 80.7124C104.291 78.1061 104.633 71.6337 104.797 68.5231C104.835 67.8202 104.861 67.3127 104.885 67.0483C104.996 65.8396 104.409 65.0463 103.89 64.3451C103.809 64.235 103.73 64.1283 103.657 64.0248C103.108 63.2431 103.174 62.3579 103.177 62.3201L103.183 62.238L103.263 62.2363C103.422 62.2314 119.07 61.8488 122.402 61.7256C123.428 61.6878 124.451 61.7009 125.442 61.7141C127.635 61.7436 129.529 61.7683 130.106 61.1803C130.193 61.0916 130.226 60.9882 130.209 60.8683C130.099 60.126 128.16 58.9533 127.422 58.5641C127.344 58.5132 120.145 53.9032 118.091 52.9966C116.041 52.0917 104.988 50.9832 104.877 50.9717C104.822 50.9684 102.146 50.9142 98.72 50.9142Z" fill="#B2B2B2"/>
<path d="M50.299 85.7162C50.299 92.1492 45.3247 97.3635 39.1879 97.3635C33.0512 97.3635 28.0769 92.1492 28.0769 85.7162C28.0769 79.2832 33.0512 74.0688 39.1879 74.0688C45.3247 74.0705 50.299 79.2848 50.299 85.7162Z" fill="#27262C"/>
<path d="M30.822 85.7162C30.822 90.5758 34.5806 94.5142 39.2165 94.5142C43.8524 94.5142 47.6093 90.5758 47.6093 85.7162C47.6093 80.8565 43.8524 76.9182 39.2165 76.9182C34.5806 76.9182 30.822 80.8581 30.822 85.7162Z" fill="#616161"/>
<path d="M36.3036 79.8186L38.2463 82.1326C38.2463 82.1326 38.5816 82.6877 39.0407 82.6877C39.4997 82.6877 39.835 82.2985 39.835 82.2985L41.8654 79.8186C41.8654 79.8186 42.1475 79.4671 41.8654 79.2257C41.5834 78.9859 40.5917 78.6328 39.2162 78.6328C37.839 78.6328 35.8086 79.022 36.3036 79.8186Z" fill="#27262C"/>
<path d="M36.303 91.6152L38.2456 89.3012C38.2456 89.3012 38.5825 88.7461 39.0399 88.7461C39.499 88.7461 39.8343 89.1353 39.8343 89.1353L41.8647 91.6152C41.8647 91.6152 42.1467 91.9667 41.8647 92.2081C41.5827 92.4479 40.591 92.801 39.2154 92.801C37.8399 92.7993 35.8094 92.4118 36.303 91.6152Z" fill="#27262C"/>
<path d="M44.9116 82.7746L42.7041 84.8111C42.7041 84.8111 42.1746 85.1625 42.1746 85.6437C42.1746 86.1249 42.5459 86.4764 42.5459 86.4764L44.9116 88.6048C44.9116 88.6048 45.2469 88.9004 45.4756 88.6048C45.7059 88.3092 46.0412 87.2696 46.0412 85.8277C46.0428 84.3857 45.6715 82.2573 44.9116 82.7746Z" fill="#27262C"/>
<path d="M33.6583 82.7746L35.8657 84.8111C35.8657 84.8111 36.3953 85.1625 36.3953 85.6437C36.3953 86.1249 36.024 86.4764 36.024 86.4764L33.6583 88.6048C33.6583 88.6048 33.323 88.9004 33.0927 88.6048C32.864 88.3092 32.5271 87.2696 32.5271 85.8277C32.5271 84.3857 32.8984 82.2573 33.6583 82.7746Z" fill="#27262C"/>
<path d="M145.041 87.1122C145.041 93.5453 140.067 98.7597 133.93 98.7597C127.793 98.7597 122.819 93.5453 122.819 87.1122C122.819 80.6792 127.793 75.4648 133.93 75.4648C140.067 75.4648 145.041 80.6792 145.041 87.1122Z" fill="#27262C"/>
<path d="M125.565 87.1123C125.565 91.972 129.324 95.9103 133.96 95.9103C138.595 95.9103 142.352 91.972 142.352 87.1123C142.352 82.2527 138.595 78.3145 133.96 78.3145C129.324 78.3145 125.565 82.2527 125.565 87.1123Z" fill="#616161"/>
<path d="M131.044 81.213L132.987 83.5269C132.987 83.5269 133.322 84.082 133.781 84.082C134.241 84.082 134.576 83.6928 134.576 83.6928L136.606 81.2113C136.606 81.2113 136.888 80.8599 136.606 80.6185C136.324 80.3771 135.333 80.0256 133.957 80.0256C132.581 80.0289 130.551 80.4165 131.044 81.213Z" fill="#27262C"/>
<path d="M131.044 93.0115L132.987 90.6975C132.987 90.6975 133.322 90.1423 133.781 90.1423C134.24 90.1423 134.577 90.5316 134.577 90.5316L136.608 93.0132C136.608 93.0132 136.89 93.3646 136.608 93.606C136.326 93.8458 135.334 94.1989 133.958 94.1989C132.581 94.1956 130.551 93.8064 131.044 93.0115Z" fill="#27262C"/>
<path d="M139.653 84.1708L137.445 86.2072C137.445 86.2072 136.916 86.5587 136.916 87.0399C136.916 87.5227 137.287 87.8725 137.287 87.8725L139.653 90.0009C139.653 90.0009 139.988 90.2966 140.217 90.0009C140.447 89.7053 140.782 88.6658 140.782 87.2239C140.784 85.7803 140.413 83.6519 139.653 84.1708Z" fill="#27262C"/>
<path d="M128.4 84.1711L130.608 86.2074C130.608 86.2074 131.137 86.5589 131.137 87.04C131.137 87.5212 130.766 87.8727 130.766 87.8727L128.4 90.001C128.4 90.001 128.065 90.2966 127.835 90.001C127.606 89.7054 127.269 88.6659 127.269 87.2224C127.269 85.7805 127.641 83.6521 128.4 84.1711Z" fill="#27262C"/>
<defs>
<radialGradient id="paint0_radial" cx="0" cy="0" r="1" gradientUnits="userSpaceOnUse" gradientTransform="translate(89.1241 97.9577) rotate(90) scale(4.04237 74.554)">
<stop offset="0.090216" stop-color="#A3A3A3"/>
<stop offset="0.298553" stop-color="#AFAFAF"/>
<stop offset="0.803771" stop-color="#B9B9B9" stop-opacity="0.62173"/>
<stop offset="1" stop-color="#C9C9C9" stop-opacity="0"/>
</radialGradient>
</defs>
</svg>