<svg width="179" height="128" viewBox="0 0 179 128" fill="none" xmlns="http://www.w3.org/2000/svg">
<ellipse cx="90.811" cy="97.9999" rx="71.0112" ry="3.6" fill="url(#paint0_radial)"/>
<path d="M19.5089 86.127C19.5089 86.127 23.1339 88.9103 23.3575 88.7494C23.5811 88.5885 23.1873 87.6247 23.3575 87.4536C23.5277 87.2839 25.8848 86.6945 25.8848 86.6945L49.9978 88.1527C49.9978 88.1527 53.503 88.4788 54.1623 88.1805C54.8215 87.8806 123.569 85.871 123.569 85.871L124.346 86.7223C124.346 86.7223 126.354 86.0802 127.586 87.6861C128.818 89.2935 157.103 85.9164 157.701 86.7223C158.298 87.5282 156.11 64.1735 156.11 64.1735L98.4371 67.2902L31.7745 63.9219C31.7745 63.9219 17.1504 74.9733 19.5089 86.127Z" fill="#010101"/>
<path d="M79.376 36.3241C79.376 36.3241 82.2206 33.9796 85.6711 33.6549C89.1215 33.3302 134.009 32.321 144.43 33.7265C154.852 35.1335 114.517 45.8442 114.517 45.8442L79.376 36.3241Z" fill="#EBE4E1"/>
<path d="M49.3562 54.716C49.3562 54.716 74.3606 37.4414 76.2099 37.1532C78.0592 36.8651 78.9839 38.5237 78.9839 38.5237L50.7425 57.024L49.3562 54.716Z" fill="#3C4660"/>
<path d="M53.344 54.7103C53.344 54.7103 67.7013 43.1982 76.8496 37.3478L74.6917 37.8232C74.6917 37.8232 78.3037 33.3988 106.454 34.3027C134.605 35.2066 146.567 34.5879 153.747 35.3967C153.747 35.3967 154.866 35.1832 154.967 37.7749C154.967 37.7749 152.105 39.1541 152.199 39.9161C152.293 40.6767 139.016 53.141 139.016 53.141L83.0914 56.328L53.344 54.7103Z" fill="#27262C"/>
<path d="M163.404 76.1621L163.77 68.8711C163.77 68.8711 165.7 69.1753 165.967 70.5589C166.233 71.9425 167.765 79.3052 165.967 80.1448C164.17 80.9843 165.868 83.2499 165.868 83.2499L163.505 86.1531C163.503 86.1531 160.973 77.6803 163.404 76.1621Z" fill="#222526"/>
<path d="M15.2114 70.0251C15.2114 70.0251 13.1861 70.2899 12.8587 73.2063C12.5327 76.1213 12.1403 81.8196 13.3159 85.0666C14.4916 88.3136 15.4725 85.7028 15.4725 85.7028L15.2114 70.0251Z" fill="#222526"/>
<path d="M13.2209 81.2536C13.329 83.0029 13.2367 84.4333 13.0133 84.448C12.7913 84.4626 12.5218 83.0555 12.4137 81.3048C12.3055 79.5555 12.3978 78.1251 12.6198 78.1105C12.8432 78.0958 13.1128 79.5029 13.2209 81.2536Z" fill="#616161"/>
<path d="M159.091 50.1997C159.091 50.1997 160.167 49.701 160.35 50.1997C160.534 50.6984 159.796 51.2469 159.418 51.2981C159.042 51.3463 159.091 50.1997 159.091 50.1997Z" fill="#252527"/>
<path d="M155.036 37.1988C155.036 37.1988 152.533 36.4178 151.796 40.3214C151.058 44.2251 151.251 54.276 151.251 54.276L156.416 62.0175L161.55 63.5869C161.55 63.5869 161.004 62.7327 160.779 60.359C160.779 60.359 160.49 59.9684 160.49 59.1874C160.49 58.4064 159.303 52.0631 159.848 51.9008C159.847 51.9023 158.276 43.9326 155.036 37.1988Z" fill="#3C4660"/>
<path d="M20.9724 59.205C20.9724 59.205 18.7654 60.3633 18.5346 60.8314C18.3038 61.2994 16.4819 64.3153 16.8973 67.3604C17.3127 70.4041 21.2537 68.7338 21.2537 68.7338L26.3342 65.7852L33.88 58.2148C33.88 58.2133 23.0496 57.5478 20.9724 59.205Z" fill="#EBE4E1"/>
<path d="M154.458 39.0737L155.886 42.1028C155.886 42.1028 155.156 42.9774 155.422 44.1899C155.687 45.4009 157.215 52.7051 157.646 53.413C158.078 54.1194 159.206 55.2983 159.239 55.8029C159.272 56.3075 159.637 59.8089 159.637 59.8089C159.637 59.8089 155.022 56.4099 154.458 54.861C153.894 53.3121 152.732 41.8015 153.13 40.7235C153.528 39.6471 154.458 39.0737 154.458 39.0737Z" fill="#D83235"/>
<path d="M156.342 43.7527C156.342 43.7527 155.951 44.1227 156.184 45.0661C156.416 46.0095 157.643 52.5385 158.076 53.0094C158.507 53.4804 158.673 53.8841 158.773 53.6486C158.872 53.4131 157.058 44.9783 156.342 43.7527Z" fill="#3C4660"/>
<path d="M159.962 56.17C159.962 56.17 159.327 51.9621 159.636 51.7954C159.944 51.6286 160.698 53.6251 160.977 56.2197C161.256 58.8144 161.19 60.3281 160.83 60.394C160.471 60.4612 160.142 57.5843 159.962 56.17Z" fill="#861C1E"/>
<path d="M37.2987 65.1225C54.4848 65.1225 56.9038 83.8744 56.9038 83.8744L120.488 83.2119C120.488 83.2119 121.273 64.1747 141.987 64.1747C156.389 64.1747 160.352 80.4286 160.352 80.4286L163.546 80.256C163.479 80.2516 163.434 80.2589 163.434 80.2589C163.325 80.0351 163.6 77.1319 163.765 76.6287C163.929 76.1256 164.095 73.5573 164.095 73.5573C164.095 73.5573 164.261 72.551 164.095 69.1447C163.929 65.7383 162.332 64.8446 162.167 64.6208C162.001 64.3971 161.285 63.1202 161.285 63.1202C161.285 63.1202 157.814 60.3208 155.281 58.1986C152.748 56.0764 152.528 54.5129 152.252 52.1668C151.977 49.8208 151.906 39.8211 151.906 39.8211L142.833 39.3779C143.603 40.3272 139.032 47.7001 137.986 49.4874C136.94 51.2747 134.13 51.1635 134.13 51.1635L98.9313 52.3921L58.8296 53.9863C58.8296 53.9863 51.0083 54.5143 49.1345 54.2905C47.2607 54.0668 37.016 55.6317 29.1947 56.7477C21.3734 57.8637 19.1145 60.2111 19.1145 60.2111C19.1145 60.2111 17.5162 61.7191 19.6107 60.0429C21.7038 58.3668 29.4154 58.4238 30.3516 58.4794C31.2878 58.535 31.784 59.2619 31.784 59.2619C30.6271 59.5968 24.3479 64.5682 22.64 65.63C20.932 66.6919 19.3886 67.195 18.0672 67.195C16.7444 67.195 16.8541 66.2736 16.8541 66.2736C15.4217 68.3651 14.9817 67.4597 14.2647 69.3582C13.5493 71.2566 14.4205 82.4616 14.4205 82.4616L19.527 82.6517C19.527 82.6517 20.1127 65.1225 37.2987 65.1225Z" fill="white"/>
<path d="M164.802 80.3642C164.802 82.052 165.126 83.4195 165.528 83.4195C165.929 83.4195 166.253 82.052 166.253 80.3642C166.253 78.6764 165.929 77.3088 165.528 77.3088C165.126 77.3103 164.802 78.6778 164.802 80.3642Z" fill="#EBE4E1"/>
<path d="M67.1939 52.9303L95.8188 51.8816L99.314 38.4229H80.1677C80.1677 38.4229 67.3901 47.4719 66.6919 48.7926C65.9937 50.1148 67.1939 52.9303 67.1939 52.9303Z" fill="#3C4660"/>
<path d="M104.339 38.5532L102.479 51.5L130.214 50.6386L130.958 43.2905L128.957 39.0739L104.339 38.5532Z" fill="#3C4660"/>
<path d="M130.958 39.0737L135.706 49.9774C135.706 49.9774 135.938 50.463 137.01 49.1876C138.08 47.9137 141.663 41.4022 141.663 41.4022C141.663 41.4022 142.175 40.6475 141.663 39.9864C141.151 39.3253 139.476 39.4218 139.476 39.4218L130.958 39.0737Z" fill="#3C4660"/>
<path d="M47.4224 58.0801C47.4224 58.0801 48.3326 60.4642 51.1036 60.3764C53.8747 60.2887 55.7269 60.0693 55.7269 60.0693C55.7269 60.0693 56.2029 57.7744 56.3861 57.4761L47.4224 58.0801Z" fill="#B2B2B2"/>
<path d="M58.7778 53.925C55.7818 57.1764 55.952 60.337 55.9549 60.3677V60.378L55.9534 60.3882C55.939 60.5403 54.5571 75.7352 57.2026 83.8263L56.9545 83.9096C54.3205 75.8551 55.6476 60.8504 55.6909 60.3736C55.6765 60.1293 55.5668 57.0184 58.5845 53.7422" fill="#B2B2B2"/>
<path d="M56.3757 57.3489L31.7744 59.1545L31.7933 59.4186L56.3946 57.6129L56.3757 57.3489Z" fill="#B2B2B2"/>
<path d="M55.2057 58.4971H49.1934C49.1934 58.4971 49.0636 59.5326 50.457 59.9377C50.457 59.9377 54.9302 59.9377 55.2057 59.6745C55.4798 59.4112 55.2057 58.4971 55.2057 58.4971Z" fill="white"/>
<path d="M66.8694 47.4369L67.4723 46.9016H68.2758C68.2758 46.9016 68.7562 47.1196 68.8023 49.6177C68.8499 52.1173 68.5254 52.7448 67.8358 52.8677C67.1463 52.9905 66.8694 47.4369 66.8694 47.4369Z" fill="#1C181A"/>
<path d="M62.4236 51.0348C62.4236 51.0348 63.0165 52.9581 64.1546 53.1029C65.2928 53.2477 67.6643 52.983 67.9961 52.8148C68.3279 52.6466 68.3265 49.2285 68.1375 48.6288C67.9485 48.0292 64.9134 48.487 64.9134 48.487L63.657 49.3046L63.3728 50.5302C63.3713 50.5302 62.4467 50.6267 62.4236 51.0348Z" fill="#2A2426"/>
<path d="M63.583 50.4412C63.583 50.4412 63.6797 50.6635 63.9884 50.4412C64.2971 50.2189 65.1409 49.6163 68.2525 49.7611L68.1501 48.7811C68.1487 48.7796 62.9627 48.1375 63.583 50.4412Z" fill="#E3E8EB"/>
<path d="M63.2063 50.6268C63.2063 50.6268 63.3246 47.3331 66.0278 47.0449C68.731 46.7568 67.5929 46.9002 67.5929 46.9002C67.5929 46.9002 67.9953 46.5389 68.1626 48.9434C68.1626 48.9434 65.0094 48.9434 64.4165 49.1832C63.8237 49.4231 63.5626 49.7127 63.5871 50.3138C63.6102 50.9149 63.2063 50.6268 63.2063 50.6268Z" fill="#D83235"/>
<path d="M56.9043 83.8745C56.9043 83.8745 54.4866 65.1226 37.2992 65.1226C20.1131 65.1226 19.5274 82.6517 19.5274 82.6517L14.421 82.4616C13.1977 82.3724 13.4415 83.1095 13.4415 83.3318C13.4415 83.5542 13.1112 83.9461 12.8905 84.2255C12.6698 84.5048 12.2298 83.8906 11.8432 86.0128C11.4581 88.135 18.5639 88.3032 18.5639 88.3032C18.7283 88.6381 19.4452 88.7493 19.4452 88.7493C22.5308 89.2524 23.3559 88.7493 23.3559 88.7493C19.1149 82.662 25.5586 66.9113 38.2829 68.8112C54.5284 71.2362 53.2432 88.1818 53.2432 88.1818H125.149C124.773 86.9137 124.698 85.1557 124.968 83.2119H120.487L56.9043 83.8745Z" fill="#2C3033"/>
<path d="M166.519 84.5034C166.134 84.1129 165.968 82.1018 165.968 82.1018C165.968 82.1018 165.528 83.7779 165.087 83.7209C164.647 83.6653 164.26 81.8224 164.17 80.9844C164.102 80.3657 163.734 80.2648 163.546 80.2545L160.353 80.4271C160.353 80.4271 156.39 64.1733 141.988 64.1733C121.272 64.1733 120.489 83.2104 120.489 83.2104H124.969C125.883 76.6258 130.768 67.922 141.401 68.9999C159.324 70.8164 156.66 87.686 156.66 87.686C156.66 87.686 162.278 87.1828 164.647 86.6812C167.014 86.1795 166.904 84.8954 166.519 84.5034Z" fill="#2C3033"/>
<path d="M54.1628 86.1035C54.1902 86.6886 54.7269 87.2736 55.3875 87.2736H122.594C123.255 87.2736 123.791 86.6886 123.819 86.1035H54.1628Z" fill="#EBE4E1"/>
<path d="M93.2488 59.5955C93.3195 60.7802 92.542 61.7543 91.5149 61.8172L90.2758 61.8932C89.2487 61.9561 88.3615 61.0844 88.2908 59.8983C88.2202 58.7136 88.9977 57.7396 90.0248 57.6767L91.2639 57.6006C92.291 57.5377 93.1781 58.4109 93.2488 59.5955Z" fill="#B2B2B2"/>
<path d="M96.2412 59.4988C96.2527 59.8864 95.97 60.2096 95.6094 60.2213L86.4652 60.5095C86.1046 60.5212 85.8031 60.2155 85.7901 59.8279C85.7786 59.4403 86.0613 59.1156 86.4219 59.1054L95.5661 58.8172C95.9282 58.8055 96.2297 59.1112 96.2412 59.4988Z" fill="white"/>
<path d="M131.804 58.0055C131.874 59.1902 131.097 60.1643 130.07 60.2272L128.831 60.3033C127.804 60.3662 126.917 59.4944 126.846 58.3083C126.775 57.1236 127.553 56.1495 128.58 56.0866L129.819 56.0105C130.846 55.9476 131.733 56.8193 131.804 58.0055Z" fill="#B2B2B2"/>
<path d="M134.798 57.9089C134.81 58.2965 134.527 58.6197 134.166 58.6314L125.022 58.9196C124.662 58.9313 124.36 58.6256 124.347 58.238C124.336 57.8504 124.618 57.5272 124.979 57.5155L134.123 57.2274C134.484 57.2157 134.785 57.5199 134.798 57.9089Z" fill="white"/>
<path d="M51.4882 84.1467C51.4882 91.6147 45.5176 97.6684 38.1536 97.6684C30.7896 97.6684 24.8191 91.6147 24.8191 84.1467C24.8191 76.6787 30.7896 70.6265 38.1536 70.6265C45.5176 70.6265 51.4882 76.6787 51.4882 84.1467Z" fill="#27262C"/>
<path d="M28.1118 84.1466C28.1118 89.7879 32.6226 94.3614 38.1863 94.3614C43.7486 94.3614 48.2594 89.7879 48.2594 84.1466C48.2594 78.5054 43.7501 73.9333 38.1863 73.9333C32.6211 73.9333 28.1118 78.5054 28.1118 84.1466Z" fill="#616161"/>
<path d="M34.6895 77.2989L37.0205 79.9857C37.0205 79.9857 37.423 80.6307 37.974 80.6307C38.5251 80.6307 38.9275 80.1788 38.9275 80.1788L41.3653 77.2989C41.3653 77.2989 41.7043 76.8908 41.3653 76.6115C41.0264 76.3321 39.8363 75.9241 38.1861 75.9241C36.533 75.9241 34.0952 76.376 34.6895 77.2989Z" fill="#27262C"/>
<path d="M34.6895 90.9947L37.0205 88.3078C37.0205 88.3078 37.4245 87.6628 37.974 87.6628C38.5251 87.6628 38.929 88.1133 38.929 88.1133L41.3653 90.9932C41.3653 90.9932 41.7043 91.4013 41.3653 91.6806C41.0264 91.96 39.8363 92.368 38.1861 92.368C36.533 92.3695 34.0952 91.919 34.6895 90.9947Z" fill="#27262C"/>
<path d="M45.0217 80.733L42.3732 83.0965C42.3732 83.0965 41.7371 83.5046 41.7371 84.0633C41.7371 84.622 42.1828 85.0301 42.1828 85.0301L45.0231 87.5019C45.0231 87.5019 45.4256 87.8456 45.7011 87.5019C45.9766 87.1582 46.3805 85.9515 46.3805 84.2769C46.379 82.6022 45.9333 80.1304 45.0217 80.733Z" fill="#27262C"/>
<path d="M31.5153 80.7316L34.1651 83.0952C34.1651 83.0952 34.8012 83.5033 34.8012 84.062C34.8012 84.6207 34.3555 85.0288 34.3555 85.0288L31.5153 87.5005C31.5153 87.5005 31.1129 87.8443 30.8359 87.5005C30.5604 87.1568 30.158 85.9502 30.158 84.2755C30.158 82.6008 30.6037 80.1305 31.5153 80.7316Z" fill="#27262C"/>
<path d="M153.448 84.1467C153.448 91.6147 147.477 97.6684 140.112 97.6684C132.746 97.6684 126.777 91.6147 126.777 84.1467C126.777 76.6787 132.748 70.6265 140.112 70.6265C147.477 70.6265 153.448 76.6787 153.448 84.1467Z" fill="#27262C"/>
<path d="M130.071 84.1466C130.071 89.7879 134.582 94.3614 140.145 94.3614C145.709 94.3614 150.218 89.7879 150.218 84.1466C150.218 78.5054 145.709 73.9333 140.145 73.9333C134.582 73.9333 130.071 78.5054 130.071 84.1466Z" fill="#616161"/>
<path d="M136.648 77.2989L138.979 79.9857C138.979 79.9857 139.381 80.6307 139.932 80.6307C140.483 80.6307 140.887 80.1788 140.887 80.1788L143.324 77.2989C143.324 77.2989 143.663 76.8908 143.324 76.6115C142.985 76.3321 141.796 75.9241 140.144 75.9241C138.491 75.9241 136.055 76.376 136.648 77.2989Z" fill="#27262C"/>
<path d="M136.648 90.9947L138.979 88.3078C138.979 88.3078 139.383 87.6628 139.932 87.6628C140.483 87.6628 140.887 88.1133 140.887 88.1133L143.324 90.9932C143.324 90.9932 143.664 91.4013 143.324 91.6806C142.985 91.96 141.795 92.368 140.144 92.368C138.491 92.3695 136.055 91.919 136.648 90.9947Z" fill="#27262C"/>
<path d="M146.981 80.733L144.332 83.0965C144.332 83.0965 143.696 83.5046 143.696 84.0633C143.696 84.622 144.142 85.0301 144.142 85.0301L146.982 87.5019C146.982 87.5019 147.385 87.8456 147.66 87.5019C147.937 87.1582 148.34 85.9515 148.34 84.2769C148.337 82.6022 147.891 80.1304 146.981 80.733Z" fill="#27262C"/>
<path d="M133.473 80.7316L136.123 83.0952C136.123 83.0952 136.759 83.5033 136.759 84.062C136.759 84.6207 136.314 85.0288 136.314 85.0288L133.473 87.5005C133.473 87.5005 133.071 87.8443 132.794 87.5005C132.518 87.1568 132.116 85.9502 132.116 84.2755C132.116 82.6008 132.562 80.1305 133.473 80.7316Z" fill="#27262C"/>
<path d="M99.2354 52.3452L98.9527 52.3525C98.5516 53.3983 97.7655 55.5498 97.5101 57.0021C97.1466 59.0659 96.6432 71.5301 96.724 73.411C96.7442 73.8703 96.7687 74.6045 96.7961 75.4543C96.8956 78.4277 97.0442 82.9208 97.2505 83.6887L97.5029 83.6185C97.3038 82.8814 97.1495 78.2274 97.0572 75.4455C97.0283 74.5943 97.0038 73.8601 96.9851 73.3993C96.8928 71.2464 97.4351 58.9342 97.7669 57.0475C98.028 55.5673 98.8517 53.3369 99.2354 52.3452Z" fill="#B2B2B2"/>
<path d="M135.94 50.9338C135.837 50.9572 135.734 50.9792 135.635 50.9996C136.318 51.6564 137.293 52.9215 137.239 54.76C137.227 55.1519 137.224 55.6039 137.223 56.1275C137.207 59.3701 137.18 64.7978 134.593 66.6699C134.202 66.9536 133.733 67.2579 133.192 67.6104C129.488 70.0222 123.29 74.0589 122.602 83.4078L122.863 83.4268C123.541 74.2096 129.671 70.2181 133.334 67.8327C133.879 67.4772 134.349 67.1716 134.746 66.8849C137.442 64.9323 137.469 59.4213 137.485 56.1275C137.488 55.6054 137.49 55.1549 137.503 54.7658C137.555 52.9434 136.649 51.6564 135.94 50.9338Z" fill="#B2B2B2"/>
<defs>
<radialGradient id="paint0_radial" cx="0" cy="0" r="1" gradientUnits="userSpaceOnUse" gradientTransform="translate(90.811 97.9999) rotate(90) scale(3.6 71.0112)">
<stop offset="0.090216" stop-color="#A3A3A3"/>
<stop offset="0.298553" stop-color="#AFAFAF"/>
<stop offset="0.803771" stop-color="#B9B9B9" stop-opacity="0.62173"/>
<stop offset="1" stop-color="#C9C9C9" stop-opacity="0"/>
</radialGradient>
</defs>
</svg>