<svg width="179" height="128" viewBox="0 0 179 128" fill="none" xmlns="http://www.w3.org/2000/svg">
<ellipse cx="89.2882" cy="98.6899" rx="74.1671" ry="3.30341" fill="url(#paint0_radial)"/>
<path d="M149.607 85.8885L150.339 86.3542C150.339 86.3542 154.568 86.0683 155.175 86.1207C155.783 86.173 157.125 85.7771 158.426 87.2279C158.426 87.2279 160.636 86.6562 160.81 86.326C160.983 85.9959 159.042 84.8644 158.166 84.5235C157.291 84.1826 151.363 84.1934 150.713 84.3477C150.062 84.5034 149.607 85.8885 149.607 85.8885Z" fill="#616161"/>
<path d="M166.679 78.2639C166.679 78.2639 170.537 78.3686 170.71 78.9846C170.882 79.6006 169.595 83.3599 169.595 83.3599C169.595 83.3599 169.236 84.5906 168.477 84.6778C167.719 84.7651 161.458 84.3262 160.527 83.3585C159.595 82.3936 166.679 78.2639 166.679 78.2639Z" fill="black"/>
<path d="M19.81 69.4494C19.81 69.4494 15.7805 69.695 15.3651 69.6292C14.9497 69.5634 15.2077 69.3085 15.5622 68.1462C15.84 67.2376 15.2844 66.3129 15.0291 65.9546C14.3306 66.0928 13.7036 66.3411 13.3094 66.7639C13.3094 66.7639 12.1201 68.3771 11.5499 69.7903C11.415 70.1231 11.3158 70.4452 11.2748 70.7324C11.0578 72.2355 10.7218 76.6456 11.1359 77.0456C11.5512 77.4469 16.3718 77.3422 16.3718 77.3422L19.5533 74.0997L21.5152 69.6332L19.81 69.4494Z" fill="#EBE4E1"/>
<path d="M15.564 68.1459C15.2082 69.3081 14.9502 69.5631 15.3669 69.6288C15.7823 69.6946 19.8118 69.449 19.8118 69.449L21.517 69.6329L22.6375 67.0843L19.0816 65.9624C19.0816 65.9624 16.8221 65.6 15.0322 65.9557C15.2862 66.3126 15.8418 67.2373 15.564 68.1459Z" fill="#D86C16"/>
<path d="M14.0519 72.6458H21.4998L20.5632 77.0707H14.2649C14.2649 77.0707 13.8257 75.5608 13.9051 74.3985C13.9832 73.2363 13.8046 72.7571 14.0519 72.6458Z" fill="#D86C16"/>
<path d="M13.2516 66.8628L12.8958 67.4064C12.8958 67.4064 14.3972 66.9031 14.7332 66.8628C15.0693 66.8226 18.5061 66.4414 19.0604 68.005C19.6134 69.5685 16.4437 72.7465 16.0733 77.3405L17.3023 76.7635L22.0435 70.5093L21.3318 67.6023L19.5538 66.6199C19.5538 66.6199 14.7134 65.4778 13.2516 66.7796" fill="black"/>
<path d="M11.7898 69.908C11.7316 69.908 11.6853 69.8529 11.6826 69.7939C11.6813 69.7348 11.7276 69.6811 11.7872 69.6798L18.7018 69.5227C18.7587 69.5214 18.809 69.567 18.8103 69.6274C18.8116 69.6865 18.7653 69.7442 18.7058 69.7456L11.7911 69.908C11.7925 69.908 11.7911 69.908 11.7898 69.908Z" fill="black"/>
<path d="M17.4551 72.3239H11.391C11.3328 72.3239 11.2852 72.3158 11.2852 72.2568C11.2852 72.1977 11.3328 72.1897 11.391 72.1897H17.4551C17.5146 72.1897 17.5609 72.1977 17.5609 72.2568C17.5622 72.3158 17.5146 72.3239 17.4551 72.3239Z" fill="black"/>
<path d="M15.1156 70.002H18.2005L17.342 71.7292H14.9026L15.1156 70.002Z" fill="black"/>
<path d="M8.64246 79.9079C8.64246 79.9079 7.65824 80.6205 7.93472 81.7841C8.2112 82.9464 8.7655 85.1273 8.7655 85.1273C8.7655 85.1273 8.73374 85.8265 10.5315 86.0668C12.3293 86.307 12.8281 86.4654 12.8281 86.4654V87.5417C12.8281 87.5417 11.4668 87.8088 11.5065 88.3899C11.5462 88.9711 12.9815 89.4328 18.5932 89.4328L18.7387 87.4679L23.0288 87.5082L42.925 87.127C42.925 87.127 47.0153 88.3698 48.5366 88.6705C50.058 88.9711 52.0344 89.3039 52.5278 89.2784C53.0212 89.2529 53.516 85.4038 53.516 85.4038L47.4506 69.5093L23.2087 68.1458L20.1158 74.3194L17.9542 77.225L17.441 77.3404L12.8929 77.3042C12.8929 77.3042 10.4469 78.2464 9.95212 78.7872C9.45868 79.3294 8.64246 79.9079 8.64246 79.9079Z" fill="#010101"/>
<path d="M111.179 66.3782L107.739 61.3655C107.739 61.3655 106.356 61.96 105.632 61.8526C104.908 61.7453 72.0348 69.1926 72.0348 69.1926L46.736 83.8979C46.736 83.8979 46.183 87.8652 47.7784 88.5134C49.3738 89.1616 58.843 89.269 58.843 89.269L109.38 88.5134C109.38 88.5134 111.188 89.3764 113.423 89.2677C115.657 89.1603 117.252 88.2947 117.252 88.2947H119.805C119.805 88.2947 124.7 88.1779 127.04 87.8544C129.38 87.531 145.445 86.5499 145.445 86.5499H150.323V84.5193V66.8171L111.179 66.3782Z" fill="black"/>
<path d="M67.9991 47.6427L66.3243 47.2454C66.3243 47.2454 48.0116 58.5003 46.3315 63.5788C44.6515 68.6559 52.0318 59.7833 52.0318 59.7833L67.9991 47.6427Z" fill="#C5D6E2"/>
<path d="M60.9575 51.5173C62.8228 50.2865 66.9661 47.6735 66.9661 47.6735L66.5335 47.1782C66.3721 47.2252 66.2888 47.252 66.3258 47.2453C66.5388 47.2091 66.7862 47.6413 66.7862 47.6413C62.2818 49.6209 52.5996 57.8238 51.8204 58.5083C51.0399 59.1914 48.238 61.0999 47.4932 61.2408C47.4747 61.2448 47.4535 61.2475 47.4324 61.2515C48.4232 61.8595 58.3157 53.2606 60.9575 51.5173Z" fill="#B2B2B2"/>
<path d="M105.679 86.0897C105.253 85.8374 105.478 84.5369 105.478 84.5369L104.733 85.5985C104.946 85.059 106.436 64.5866 106.4 60.7375C106.364 56.887 105.406 47.9647 104.45 46.4173C103.492 44.8698 99.6982 44.9061 88.4907 45.0859C77.2846 45.2658 71.4679 46.2374 70.653 46.2374C69.9783 46.2374 67.3114 46.9528 66.5335 47.1782L66.9661 47.6735C66.9661 47.6735 62.8228 50.2866 60.9576 51.5173C58.3158 53.2606 48.4246 61.8595 47.4324 61.2501C46.6122 61.379 44.03 61.3508 43.1661 61.2461C42.2785 61.1388 22.5239 63.9867 19.3675 64.5611C16.2111 65.1369 15.1078 65.4214 13.9463 65.9018C12.7848 66.3823 12.8972 67.405 12.8972 67.405C15.8909 65.4026 19.0539 67.2117 19.3727 67.7164C19.6916 68.2197 18.5565 70.7026 17.8118 72.0702C17.067 73.4378 16.0735 77.3405 16.0735 77.3405H20.7195C21.996 73.886 23.6629 72.5278 25.3297 71.7722C26.9965 71.0166 39.4091 69.3349 42.5655 71.6366C45.7219 73.9397 46.8212 84.4819 46.8927 85.2361C46.9641 85.9917 47.566 86.6037 47.566 86.6037C47.6375 87.4667 48.3902 87.7552 48.3902 87.7552L106.666 87.2157V86.3514C106.666 86.3527 106.105 86.342 105.679 86.0897Z" fill="#EBEBEB"/>
<path d="M164.19 61.6621L167.468 63.4968C167.468 63.4968 168.153 65.1784 168.198 67.6828C168.243 70.1871 168.402 75.3811 167.587 76.3917C166.77 77.4023 161.833 73.3585 161.811 72.9908C161.788 72.6244 164.19 61.6621 164.19 61.6621Z" fill="#D83235"/>
<path d="M107.743 61.3657C107.743 61.3657 107.132 61.1818 107.132 62.1736C107.132 63.1654 106.989 71.2502 106.881 73.8955C106.772 76.5408 105.31 85.6832 105.698 85.9234C106.086 86.1636 107.244 86.3757 107.244 86.3757L107.209 87.3541H116.187C116.187 87.3541 117.641 86.6763 118.437 86.6763C119.235 86.6763 119.488 86.1099 119.488 85.5959C119.488 85.0819 120.502 74.5276 125.248 72.4326C129.993 70.3376 142.126 70.4624 142.126 70.4624C142.126 70.4624 146.292 70.304 147.632 74.8242C148.972 79.3444 149.443 83.8217 148.718 85.255L157.556 84.1505C157.556 84.1505 164.982 83.8552 166.141 81.5401C167.299 79.225 167.77 76.0268 167.77 76.0268C167.77 76.0268 166.285 75.549 165.851 73.4539C165.416 71.3589 164.438 68.6761 164.402 68.0144C164.367 67.3528 163.614 64.4498 164.519 63.9358C165.425 63.4218 167.388 63.4942 167.388 63.4942V61.6341C167.388 61.6341 167.532 60.7751 166.735 60.7751C165.938 60.7778 107.743 61.3657 107.743 61.3657Z" fill="#EBEBEB"/>
<path d="M20.1161 77.9351H11.6047C11.6047 77.9351 8.7274 78.0277 8.4906 79.3698C8.25381 80.7134 8.56997 81.214 8.78693 81.2543C9.00388 81.2945 19.3567 81.2543 19.3567 81.2543C19.3567 81.2543 19.5115 79.386 20.1161 77.9351Z" fill="#EBE4E1"/>
<path d="M106.985 75.5609V78.2049H115.762C115.762 78.2049 116.195 78.2062 116.323 78.0747C116.451 77.9432 116.452 77.4815 116.452 77.4815V76.2091C116.452 76.2091 116.434 75.5971 116.003 75.5622C115.574 75.5246 106.985 75.5609 106.985 75.5609Z" fill="#222222"/>
<path d="M115.761 78.205C115.761 78.205 116.399 78.6921 117.393 76.8749C118.386 75.0564 119.946 68.005 123.066 67.142C126.187 66.279 153.707 63.9035 153.707 63.9035C153.707 63.9035 124.698 63.3277 121.505 66.4938C118.315 69.6598 117.819 77.3957 115.761 78.205Z" fill="#B2B2B2"/>
<path d="M53.2848 61.8059C53.2848 61.8059 52.9104 60.2021 54.4912 58.9794C56.0721 57.7554 64.2224 51.1738 64.2224 51.1738C64.2224 51.1738 68.0481 48.0521 73.0394 47.6293C78.0306 47.2079 84.3937 47.1233 84.3937 47.1233C84.3937 47.1233 85.8912 47.0388 85.9322 48.2628C85.9732 49.4867 85.1001 60.288 85.1001 60.288C85.1001 60.288 85.3501 61.1737 84.6014 61.6381C83.8526 62.1025 82.1897 62.0179 82.1897 62.0179L55.781 63.2835C55.7797 63.2835 53.5758 63.156 53.2848 61.8059Z" fill="#1E1E1E"/>
<path d="M84.1848 60.4985L85.1413 48.9378C85.1413 48.9378 85.4733 48.052 84.6624 48.052C83.8514 48.052 73.1638 48.052 69.2534 49.782C65.3443 51.5119 56.6106 56.7863 55.3207 60.4985C54.0309 64.2121 57.4837 61.9333 57.4837 61.9333L62.5569 61.8487L82.0206 60.9629C82.0219 60.9616 84.1253 61.2206 84.1848 60.4985Z" fill="#3C4660"/>
<path d="M102.249 58.3798C102.249 60.1125 100.864 61.7216 99.1563 61.7216H92.5763C90.8684 61.7216 89.0732 59.9085 89.0732 58.1758V49.6642C89.0732 47.9316 90.8671 47.0928 92.5763 47.0928H98.3057C100.014 47.0928 101.139 47.6471 101.709 49.9541L102.249 58.3798Z" fill="#3C4660"/>
<path d="M98.3058 47.605C99.6724 47.605 100.567 47.9728 101.076 49.9806L101.61 58.4251C101.6 59.8437 100.458 61.0986 99.1564 61.0986H92.5765C91.2284 61.0986 89.6952 59.5431 89.6952 58.1768V49.6652C89.6952 48.3432 91.1861 47.6064 92.5765 47.6064H98.3138L98.3058 47.605ZM98.3058 46.9568H92.5765C90.8686 46.9568 89.0576 47.9298 89.0576 49.6625V58.1742C89.0576 59.9068 90.8686 61.7442 92.5765 61.7442H99.1564C100.864 61.7442 102.249 60.1229 102.249 58.3902L101.71 49.892C101.139 47.5836 100.014 46.9568 98.3058 46.9568Z" fill="#1E1E1E"/>
<path d="M52.9198 75.5609C52.1962 75.5609 52.0334 76.1568 52.0334 76.8909V76.9285C52.0334 77.6626 52.1948 78.2585 52.9198 78.2585H87.2499V75.5596H52.9198V75.5609Z" fill="#222222"/>
<path d="M105.123 76.8911C105.123 76.157 105.175 75.561 104.45 75.561H88.1006V78.2601H104.45C105.174 78.2601 105.123 77.6642 105.123 76.9301V76.8911Z" fill="#222222"/>
<path d="M53.5163 62.0541C53.5163 62.0541 53.261 60.551 54.785 60.1792L54.9689 58.2466C54.9689 58.2466 54.8988 57.2441 55.4769 56.9864C56.0563 56.7287 59.0328 55.9986 60.2604 56.1852C61.4881 56.3717 61.1216 59.6639 61.0925 60.1658C61.0634 60.6664 61.2195 61.5831 60.4007 61.8837C59.5818 62.1843 56.8302 63.1144 56.4492 63.258C56.0682 63.4016 53.4608 63.8431 53.5163 62.0541Z" fill="#040404"/>
<path d="M87.7505 83.7317H87.6182V65.7382L88.0719 45.0901L88.2836 45.0955L87.7505 65.7409V83.7317Z" fill="#B2B2B2"/>
<path d="M51.0728 84.5206L51.0463 84.4495C50.5621 83.1182 49.1149 73.1639 49.4086 69.508C49.689 66.0146 51.3426 58.9391 51.3585 58.8666L51.6218 58.6733C51.6046 58.7458 49.8994 66.0481 49.6203 69.5255C49.3411 72.9907 50.7288 82.7491 51.2209 84.3032L104.949 83.5235L104.951 83.7396L51.0728 84.5206Z" fill="#B2B2B2"/>
<path d="M43.7287 87.4242C44.0319 81.0481 39.1825 75.6369 32.8972 75.338C26.6119 75.0391 21.2709 79.9657 20.9677 86.3419C20.6645 92.7181 25.5139 98.1293 31.7992 98.4281C38.0845 98.727 43.4255 93.8004 43.7287 87.4242Z" fill="#27262C"/>
<path d="M23.7427 86.88C23.7427 91.7022 27.5962 95.6104 32.3494 95.6104C37.1025 95.6104 40.9547 91.7008 40.9547 86.88C40.9547 82.0579 37.1025 78.1497 32.3494 78.1497C27.5962 78.1483 23.7427 82.0579 23.7427 86.88Z" fill="#616161"/>
<path d="M29.3629 81.026L31.3552 83.3223C31.3552 83.3223 31.6991 83.8739 32.1701 83.8739C32.641 83.8739 32.9836 83.4874 32.9836 83.4874L35.0672 81.026C35.0672 81.026 35.3569 80.6771 35.0672 80.4382C34.7775 80.1993 33.7602 79.8503 32.35 79.8503C30.9384 79.8503 28.8562 80.2369 29.3629 81.026Z" fill="#27262C"/>
<path d="M29.3622 92.7334L31.3531 90.437C31.3531 90.437 31.6971 89.8867 32.168 89.8867C32.6389 89.8867 32.9829 90.2719 32.9829 90.2719L35.0651 92.7334C35.0651 92.7334 35.3548 93.0823 35.0651 93.3212C34.7754 93.5601 33.7594 93.9091 32.3479 93.9091C30.9377 93.9091 28.8555 93.5239 29.3622 92.7334Z" fill="#27262C"/>
<path d="M38.1897 83.9611L35.9263 85.9809C35.9263 85.9809 35.3826 86.3299 35.3826 86.8076C35.3826 87.2854 35.7622 87.6344 35.7622 87.6344L38.1884 89.7468C38.1884 89.7468 38.5324 90.0407 38.7678 89.7468C39.0033 89.4529 39.3473 88.4222 39.3473 86.9902C39.3486 85.5582 38.9676 83.4457 38.1897 83.9611Z" fill="#27262C"/>
<path d="M26.6503 83.9611L28.9137 85.9809C28.9137 85.9809 29.4561 86.3299 29.4561 86.8076C29.4561 87.2854 29.0765 87.6344 29.0765 87.6344L26.6503 89.7468C26.6503 89.7468 26.3064 90.0407 26.0709 89.7468C25.8354 89.4529 25.4915 88.4222 25.4915 86.9902C25.4915 85.5582 25.8711 83.4457 26.6503 83.9611Z" fill="#27262C"/>
<path d="M43.7287 87.4242C44.0319 81.0481 39.1825 75.6369 32.8972 75.338C26.6119 75.0391 21.2709 79.9657 20.9677 86.3419C20.6645 92.7181 25.5139 98.1293 31.7992 98.4281C38.0845 98.727 43.4255 93.8004 43.7287 87.4242Z" fill="#27262C"/>
<path d="M23.7427 86.88C23.7427 91.7022 27.5962 95.6104 32.3494 95.6104C37.1025 95.6104 40.9547 91.7008 40.9547 86.88C40.9547 82.0579 37.1025 78.1497 32.3494 78.1497C27.5962 78.1483 23.7427 82.0579 23.7427 86.88Z" fill="#616161"/>
<path d="M29.3629 81.026L31.3552 83.3223C31.3552 83.3223 31.6991 83.8739 32.1701 83.8739C32.641 83.8739 32.9836 83.4874 32.9836 83.4874L35.0672 81.026C35.0672 81.026 35.3569 80.6771 35.0672 80.4382C34.7775 80.1993 33.7602 79.8503 32.35 79.8503C30.9384 79.8503 28.8562 80.2369 29.3629 81.026Z" fill="#27262C"/>
<path d="M29.3622 92.7334L31.3531 90.437C31.3531 90.437 31.6971 89.8867 32.168 89.8867C32.6389 89.8867 32.9829 90.2719 32.9829 90.2719L35.0651 92.7334C35.0651 92.7334 35.3548 93.0823 35.0651 93.3212C34.7754 93.5601 33.7594 93.9091 32.3479 93.9091C30.9377 93.9091 28.8555 93.5239 29.3622 92.7334Z" fill="#27262C"/>
<path d="M38.1897 83.9611L35.9263 85.9809C35.9263 85.9809 35.3826 86.3299 35.3826 86.8076C35.3826 87.2854 35.7622 87.6344 35.7622 87.6344L38.1884 89.7468C38.1884 89.7468 38.5324 90.0407 38.7678 89.7468C39.0033 89.4529 39.3473 88.4222 39.3473 86.9902C39.3486 85.5582 38.9676 83.4457 38.1897 83.9611Z" fill="#27262C"/>
<path d="M26.6503 83.9611L28.9137 85.9809C28.9137 85.9809 29.4561 86.3299 29.4561 86.8076C29.4561 87.2854 29.0765 87.6344 29.0765 87.6344L26.6503 89.7468C26.6503 89.7468 26.3064 90.0407 26.0709 89.7468C25.8354 89.4529 25.4915 88.4222 25.4915 86.9902C25.4915 85.5582 25.8711 83.4457 26.6503 83.9611Z" fill="#27262C"/>
<path d="M145.926 88.7336C146.934 82.4326 142.716 76.4955 136.505 75.4729C130.294 74.4503 124.442 78.7293 123.434 85.0304C122.427 91.3315 126.644 97.2684 132.855 98.2911C139.066 99.3137 144.918 95.0347 145.926 88.7336Z" fill="#27262C"/>
<path d="M126.09 86.88C126.09 91.7022 129.944 95.6104 134.697 95.6104C139.45 95.6104 143.302 91.7008 143.302 86.88C143.302 82.0579 139.45 78.1497 134.697 78.1497C129.944 78.1483 126.09 82.0579 126.09 86.88Z" fill="#616161"/>
<path d="M131.711 81.026L133.703 83.3223C133.703 83.3223 134.047 83.8739 134.518 83.8739C134.989 83.8739 135.332 83.4874 135.332 83.4874L137.414 81.026C137.414 81.026 137.703 80.6771 137.414 80.4382C137.124 80.1993 136.108 79.8503 134.697 79.8503C133.285 79.8503 131.203 80.2369 131.711 81.026Z" fill="#27262C"/>
<path d="M131.71 92.7331L133.701 90.4367C133.701 90.4367 134.045 89.8865 134.516 89.8865C134.987 89.8865 135.331 90.2716 135.331 90.2716L137.413 92.7331C137.413 92.7331 137.703 93.0821 137.413 93.321C137.123 93.5599 136.107 93.9088 134.696 93.9088C133.284 93.9088 131.203 93.5236 131.71 92.7331Z" fill="#27262C"/>
<path d="M140.538 83.9611L138.274 85.9809C138.274 85.9809 137.73 86.3299 137.73 86.8077C137.73 87.2854 138.111 87.6344 138.111 87.6344L140.538 89.7469C140.538 89.7469 140.882 90.0408 141.117 89.7469C141.353 89.4529 141.697 88.4222 141.697 86.9902C141.697 85.5582 141.316 83.4457 140.538 83.9611Z" fill="#27262C"/>
<path d="M128.998 83.9611L131.261 85.9809C131.261 85.9809 131.804 86.3299 131.804 86.8077C131.804 87.2854 131.424 87.6344 131.424 87.6344L128.998 89.7469C128.998 89.7469 128.654 90.0408 128.419 89.7469C128.183 89.4529 127.839 88.4222 127.839 86.9902C127.839 85.5582 128.22 83.4457 128.998 83.9611Z" fill="#27262C"/>
<path d="M167.575 78.9001H170.341C170.341 78.9001 170.991 78.9498 170.882 79.6531C170.774 80.3563 170.554 83.4082 169.234 83.4968C167.914 83.584 165.509 84.1652 165.423 83.8135C165.335 83.4619 166.398 82.7372 166.744 81.9239C167.092 81.1092 167.387 78.9001 167.575 78.9001Z" fill="#DEDEDE"/>
<path d="M77.1668 65.7851C77.1668 65.7851 77.2065 64.992 77.643 64.9611C78.0796 64.9302 78.7714 64.8215 78.7714 64.8215C78.7714 64.8215 79.4779 63.9022 80.2623 63.9022C81.0468 63.9022 81.9305 63.9022 81.9305 63.9022C81.9305 63.9022 83.3671 63.6861 84.014 64.7651H85.4414C85.4414 64.7651 86.1531 64.7906 86.1835 65.7704C86.214 66.7501 85.4904 66.5663 85.4904 66.5663L84.0286 66.5931C84.0286 66.5931 83.3658 67.5715 82.8089 67.5715C82.2519 67.5715 81.1857 67.5715 81.1857 67.5715C81.1857 67.5715 79.6459 67.6815 79.2834 67.1769C78.9222 66.6723 78.5756 66.6575 78.5756 66.6575L77.7925 66.6119C77.7912 66.6132 77.0133 66.3703 77.1668 65.7851Z" fill="#B2B2B2"/>
<defs>
<radialGradient id="paint0_radial" cx="0" cy="0" r="1" gradientUnits="userSpaceOnUse" gradientTransform="translate(89.2882 98.6899) rotate(90) scale(3.30341 74.1671)">
<stop offset="0.090216" stop-color="#A3A3A3"/>
<stop offset="0.298553" stop-color="#AFAFAF"/>
<stop offset="0.803771" stop-color="#B9B9B9" stop-opacity="0.62173"/>
<stop offset="1" stop-color="#C9C9C9" stop-opacity="0"/>
</radialGradient>
</defs>
</svg>